<?xml version="1.0" encoding="UTF-8" standalone="no"?>
<svg
   xmlns:dc="http://purl.org/dc/elements/1.1/"
   xmlns:cc="http://creativecommons.org/ns#"
   xmlns:rdf="http://www.w3.org/1999/02/22-rdf-syntax-ns#"
   xmlns:svg="http://www.w3.org/2000/svg"
   xmlns="http://www.w3.org/2000/svg"
   xmlns:sodipodi="http://sodipodi.sourceforge.net/DTD/sodipodi-0.dtd"
   xmlns:inkscape="http://www.inkscape.org/namespaces/inkscape"
   width="600"
   height="600"
   viewBox="0 0 158.75 158.75"
   version="1.1"
   id="svg8"
   inkscape:version="1.0.2-2 (e86c870879, 2021-01-15)"
   sodipodi:docname="bg_roman.svg">
  <defs
     id="defs2" />
  <sodipodi:namedview
     id="base"
     pagecolor="#ffffff"
     bordercolor="#666666"
     borderopacity="1.0"
     inkscape:pageopacity="0.0"
     inkscape:pageshadow="2"
     inkscape:zoom="0.7"
     inkscape:cx="245.18714"
     inkscape:cy="507.19871"
     inkscape:document-units="mm"
     inkscape:current-layer="g999"
     inkscape:document-rotation="0"
     showgrid="false"
     inkscape:snap-global="false"
     inkscape:window-width="1450"
     inkscape:window-height="1030"
     inkscape:window-x="128"
     inkscape:window-y="0"
     inkscape:window-maximized="0"
     units="px" />
  <metadata
     id="metadata5">
    <rdf:RDF>
      <cc:Work
         rdf:about="">
        <dc:format>image/svg+xml</dc:format>
        <dc:type
           rdf:resource="http://purl.org/dc/dcmitype/StillImage" />
        <dc:title></dc:title>
      </cc:Work>
    </rdf:RDF>
  </metadata>
  <g
     inkscape:label="Katman 1"
     inkscape:groupmode="layer"
     id="layer1">
    <g
       transform="matrix(0.03527778,0,0,-0.03527778,-106.29451,331.42028)"
       fill="#000000"
       stroke="none"
       id="g999">
      <g
         id="g1180"
         transform="matrix(0.35165146,0,0,0.35557254,3012.9297,4893.7077)">
        <path
           d="m 6010,12646 c -7,-10 -21,-14 -34,-10 -41,10 -51,-18 -51,-136 0,-76 4,-112 14,-123 16,-21 35,-22 53,-3 8,7 25,13 38,12 36,-2 50,35 50,134 0,88 -14,133 -41,138 -9,1 -22,-4 -29,-12 z"
           id="path835" />
        <path
           d="m 6601,12639 c -30,-10 -63,-27 -74,-36 -72,-66 -58,-189 27,-229 32,-16 38,-15 104,5 39,12 85,33 102,47 81,69 81,173 -2,215 -45,23 -86,23 -157,-2 z"
           id="path837" />
        <path
           d="m 7328,12604 c -11,-24 -13,-25 -25,-8 -13,17 -14,17 -33,-2 -23,-22 -76,-223 -67,-248 7,-18 52,-22 62,-6 3,6 19,10 34,10 16,0 34,6 40,13 18,23 44,223 31,247 -14,27 -28,25 -42,-6 z"
           id="path839" />
        <path
           d="m 5353,12549 c -4,-14 -11,-18 -22,-14 -29,12 -34,10 -48,-15 -40,-77 12,-281 62,-240 8,7 15,19 15,28 0,13 3,12 19,-2 11,-10 24,-15 30,-12 44,28 29,240 -19,266 -26,14 -31,13 -37,-11 z"
           id="path841" />
        <path
           d="m 7971,12473 c -16,-22 -20,-24 -21,-10 -1,68 -88,-72 -103,-166 -11,-68 25,-111 61,-75 7,7 24,12 39,13 33,0 50,29 63,112 23,137 7,187 -39,126 z"
           id="path843" />
        <path
           d="m 4693,12398 c -4,-7 -19,-13 -32,-13 -41,0 -48,-26 -27,-107 28,-111 69,-180 96,-163 5,3 10,18 10,32 v 26 l 24,-22 c 14,-13 29,-20 35,-16 26,16 5,169 -33,243 -17,34 -57,45 -73,20 z"
           id="path845" />
        <path
           d="m 8621,12306 c -7,-8 -20,-12 -30,-9 -34,9 -121,-127 -137,-215 -10,-51 35,-84 65,-48 6,7 22,11 36,9 19,-4 28,2 44,28 21,33 67,165 73,204 5,40 -27,60 -51,31 z"
           id="path847" />
        <path
           d="m 4086,12203 c -3,-4 -6,-20 -7,-37 v -31 l -16,23 c -8,12 -25,22 -36,22 -18,0 -19,-5 -14,-59 5,-60 35,-141 64,-173 19,-21 73,-24 73,-5 0,9 11,12 36,9 36,-4 36,-4 29,27 -9,43 -52,148 -76,188 -20,31 -42,47 -53,36 z"
           id="path849" />
        <path
           d="m 9225,12023 c -20,-22 -25,-24 -25,-10 0,9 -4,17 -8,17 -22,0 -121,-135 -136,-187 -10,-31 28,-51 53,-29 10,9 25,14 35,10 38,-15 126,126 126,201 0,32 -13,32 -45,-2 z"
           id="path851" />
        <path
           d="m 5928,12014 c -100,-15 -220,-52 -176,-53 16,-1 34,-11 46,-26 30,-37 100,-213 182,-450 39,-115 84,-246 99,-289 l 28,-79 -54,-146 c -102,-276 -165,-436 -204,-520 -21,-46 -39,-88 -39,-94 0,-15 126,-1 185,21 56,20 63,30 99,149 27,87 94,243 105,243 14,0 106,-256 120,-336 6,-33 18,-64 28,-71 21,-16 223,-18 223,-3 0,6 16,10 35,10 19,0 35,2 35,4 0,5 -88,249 -174,481 -118,319 -116,362 34,735 72,178 142,319 171,346 20,18 21,18 39,-3 13,-17 19,-49 24,-135 8,-131 -6,-632 -30,-1064 -9,-165 -14,-317 -10,-338 11,-59 35,-76 110,-76 36,0 68,5 71,10 3,6 19,10 34,10 53,0 53,-3 71,375 26,536 60,983 85,1101 18,85 30,105 58,95 19,-7 22,-17 25,-72 5,-102 -46,-551 -134,-1162 -25,-176 -43,-329 -40,-342 8,-30 25,-36 119,-42 54,-4 77,-2 77,6 0,6 15,11 35,11 31,0 35,4 45,38 20,68 45,233 90,597 63,507 107,790 135,874 8,26 29,61 45,76 17,16 30,32 30,36 0,25 -163,43 -562,64 -381,20 -459,19 -528,-4 -55,-18 -55,-18 -57,-62 -3,-75 -114,-419 -135,-419 -10,0 -74,204 -94,299 -8,42 -14,108 -12,146 l 3,70 -75,2 c -41,0 -114,-5 -162,-13 z"
           id="path853" />
        <path
           d="m 3473,11919 c -99,-32 -135,-86 -118,-176 9,-51 85,-128 117,-120 82,20 104,28 139,52 76,53 99,127 59,192 -41,67 -100,83 -197,52 z"
           id="path855" />
        <path
           d="m 9710,11745 c -68,-22 -90,-36 -107,-69 -21,-40 -11,-88 32,-153 43,-65 51,-66 178,-20 46,16 77,62 77,113 0,110 -74,162 -180,129 z"
           id="path857" />
        <path
           d="m 2904,11553 c 2,-10 7,-28 11,-40 6,-20 3,-20 -24,7 -58,58 -69,24 -22,-68 33,-65 96,-142 116,-142 16,0 28,28 18,43 -3,6 4,3 18,-6 36,-26 49,-21 49,16 0,38 -37,101 -97,165 -41,43 -78,57 -69,25 z"
           id="path861" />
        <path
           d="m 2367,11164 c -3,-3 -3,-13 0,-22 5,-14 3,-15 -8,-4 -20,19 -59,15 -59,-6 0,-23 47,-98 95,-151 38,-42 80,-55 91,-28 3,9 16,12 34,9 67,-10 45,59 -48,152 -51,51 -87,68 -105,50 z"
           id="path863" />
        <path
           d="m 10830,10940 c -8,-5 -27,-11 -42,-14 -30,-7 -117,-87 -147,-137 -27,-44 -28,-79 -2,-79 11,0 23,5 26,10 3,6 20,10 37,10 24,0 46,16 119,88 99,98 114,132 57,131 -18,0 -40,-4 -48,-9 z"
           id="path865" />
        <path
           d="m 1877,10733 c -4,-3 -7,-15 -7,-25 0,-17 -2,-17 -25,-2 -59,39 -60,-24 -1,-103 69,-91 142,-136 153,-94 4,17 9,19 25,10 11,-6 26,-8 34,-5 40,15 -12,106 -104,181 -55,46 -64,50 -75,38 z"
           id="path867" />
        <path
           d="m 11290,10480 c -8,-5 -27,-11 -41,-14 -29,-6 -80,-44 -156,-118 -84,-80 -68,-111 39,-77 80,25 137,59 176,104 62,70 49,145 -18,105 z"
           id="path869" />
        <path
           d="m 1430,10218 c 0,-17 -3,-19 -12,-10 -14,14 -45,16 -53,2 -11,-17 23,-66 90,-128 70,-66 111,-85 129,-60 6,8 24,14 41,14 68,-2 31,68 -82,153 -74,56 -113,66 -113,29 z"
           id="path871" />
        <path
           d="m 11658,9944 c -21,-7 -53,-21 -70,-30 -43,-22 -178,-113 -178,-120 0,-3 7,-19 16,-36 12,-23 20,-29 37,-25 79,20 102,28 144,52 26,16 64,41 84,56 38,30 74,92 64,109 -8,13 -52,11 -97,-6 z"
           id="path873" />
        <path
           d="m 1101,9729 c -64,-22 -102,-55 -126,-110 -16,-34 -16,-45 -5,-82 14,-47 80,-117 110,-117 10,0 29,4 42,9 13,5 35,12 49,15 34,7 113,78 129,116 10,24 10,36 -1,62 -17,41 -64,95 -100,114 -33,17 -29,17 -98,-7 z"
           id="path875" />
        <path
           d="m 1850,9703 c -13,-9 -34,-17 -48,-18 -14,0 -36,-15 -53,-35 -45,-53 -99,-133 -99,-147 0,-7 15,-19 34,-27 19,-8 56,-34 81,-57 74,-68 256,-302 244,-313 -6,-6 -225,41 -303,65 -87,26 -116,45 -116,75 0,35 -16,37 -43,4 -24,-29 -25,-29 -31,-7 -6,21 -8,21 -37,-13 -50,-58 -206,-327 -195,-337 2,-3 17,2 34,11 16,8 32,13 34,10 3,-3 22,3 42,12 32,16 45,16 118,5 192,-28 619,-132 718,-175 89,-37 448,-472 466,-565 8,-39 18,-45 46,-29 13,7 29,11 37,9 20,-4 58,36 96,100 51,88 52,96 11,113 -19,8 -58,39 -87,68 -79,82 -188,232 -177,243 14,14 295,-67 331,-95 30,-24 50,-25 66,-6 7,8 21,12 32,9 11,-3 28,2 40,12 23,22 129,188 129,203 0,14 2,14 -240,57 -241,44 -469,98 -535,129 -27,13 -69,39 -93,59 -85,72 -358,407 -437,538 -27,43 -35,67 -31,84 8,31 -5,38 -34,18 z"
           id="path877" />
        <path
           d="m 11916,9450 c -134,-51 -197,-151 -152,-238 36,-70 88,-84 192,-53 74,22 114,53 133,104 19,49 -15,135 -69,181 -36,30 -39,30 -104,6 z"
           id="path879" />
        <path
           d="m 11292,9349 c -11,-17 -16,-18 -28,-8 -12,10 -21,5 -52,-28 -53,-57 -117,-97 -477,-303 -493,-281 -935,-541 -935,-549 0,-14 77,-126 103,-149 22,-21 28,-22 49,-10 12,7 30,13 38,13 8,0 67,34 130,76 201,133 858,509 1084,621 98,48 103,50 168,44 58,-5 67,-4 62,9 -5,13 0,15 36,9 25,-4 41,-3 38,2 -63,110 -154,263 -166,277 -20,23 -34,22 -50,-4 z"
           id="path881" />
        <path
           d="m 723,9101 c -4,-17 -8,-18 -29,-9 -18,9 -28,8 -37,-1 -30,-30 53,-105 156,-141 48,-17 61,-18 80,-8 12,7 33,14 46,15 13,1 31,9 40,18 15,15 13,19 -15,44 -27,24 -201,101 -227,101 -5,0 -11,-9 -14,-19 z"
           id="path883" />
        <path
           d="m 11479,9009 c -8,-15 -14,-18 -22,-10 -18,18 -25,13 -52,-29 -45,-71 -217,-169 -970,-550 -253,-128 -462,-235 -464,-237 -6,-4 56,-132 78,-162 17,-22 19,-23 62,-8 25,9 310,148 634,309 572,285 794,390 825,391 8,0 21,7 29,14 9,9 23,12 39,8 24,-6 25,-5 19,32 -8,46 -78,190 -113,233 -30,35 -49,38 -65,9 z"
           id="path885" />
        <path
           d="m 12315,8785 c -5,-1 -37,-11 -70,-20 -134,-39 -240,-114 -207,-147 15,-15 188,41 262,85 50,30 80,61 70,70 -8,7 -44,15 -55,12 z"
           id="path887" />
        <path
           d="m 460,8481 c 0,-6 -15,-11 -35,-11 -19,0 -35,-4 -35,-10 0,-49 231,-149 255,-110 3,6 19,10 35,10 67,0 48,50 -35,91 -67,33 -185,52 -185,30 z"
           id="path889" />
        <path
           d="m 12483,8160 c -69,-10 -182,-45 -210,-65 -54,-38 -13,-82 60,-65 145,32 257,82 257,115 0,11 -34,27 -50,24 -3,-1 -28,-5 -57,-9 z"
           id="path891" />
        <path
           d="m 285,7848 c -4,-10 -14,-14 -25,-11 -11,3 -27,2 -36,-1 -46,-18 94,-96 171,-96 19,0 44,4 57,9 13,5 35,12 51,15 41,9 36,41 -12,65 -53,28 -198,40 -206,19 z"
           id="path893" />
        <path
           d="m 12590,7503 c -92,-16 -210,-63 -210,-84 0,-28 138,-16 256,22 66,21 98,51 68,63 -17,6 -74,6 -114,-1 z"
           id="path895" />
        <path
           d="m 210,7199 c -67,-8 -132,-30 -137,-46 -7,-19 33,-34 127,-45 88,-11 137,-5 190,21 22,12 24,48 3,59 -25,13 -118,19 -183,11 z"
           id="path897" />
        <path
           d="m 750,7110 c -10,-42 -15,-49 -26,-39 -8,6 -14,25 -14,41 0,90 -43,-57 -54,-187 -8,-83 1,-103 34,-85 13,7 42,10 67,7 68,-7 375,-161 387,-194 9,-21 -40,-45 -152,-74 -125,-33 -201,-37 -239,-12 -25,17 -27,17 -40,-4 -12,-18 -18,-20 -34,-10 -30,18 -40,-2 -51,-100 -11,-95 -5,-626 7,-655 7,-17 9,-16 33,2 17,14 29,17 36,10 6,-6 15,-5 26,5 40,36 233,51 885,70 519,15 634,23 710,49 l 40,14 3,99 c 2,54 0,152 -3,219 l -7,121 -156,63 c -187,75 -302,128 -302,139 0,13 173,66 280,86 52,10 104,21 115,26 11,4 31,9 45,11 15,2 30,13 37,28 16,34 37,195 29,226 -6,24 -7,24 -37,8 -17,-8 -33,-13 -36,-10 -4,3 -20,-3 -37,-13 -46,-28 -196,-74 -498,-151 l -269,-69 -282,125 c -403,179 -467,217 -467,276 0,45 -17,32 -30,-22 z m 962,-669 c 264,-106 406,-168 470,-207 59,-36 87,-69 71,-84 -16,-16 -514,-34 -963,-34 -445,-1 -456,-1 -502,20 -85,40 -71,96 37,141 67,27 364,125 525,173 58,17 123,37 145,45 22,7 41,14 42,14 2,1 80,-30 175,-68 z M 690,6180 c 0,-22 -4,-40 -10,-40 -11,0 -14,63 -3,73 11,12 13,8 13,-33 z m 1626,-18 c -15,-15 -16,-13 -16,23 0,39 0,39 16,16 15,-21 15,-24 0,-39 z"
           id="path899" />
        <path
           d="m 12567,6835 c -42,-13 -82,-27 -87,-30 -15,-9 -12,-31 5,-45 28,-23 245,26 284,64 14,15 14,18 1,26 -26,17 -122,9 -203,-15 z"
           id="path901" />
        <path
           d="m 12101,6739 c -85,-34 -589,-59 -1183,-59 -286,0 -438,-3 -438,-10 0,-5 -13,-10 -30,-10 h -30 v -109 c 0,-61 4,-112 9,-115 5,-3 44,2 88,12 70,15 144,17 718,17 602,-1 741,-6 823,-31 17,-5 22,-2 22,11 0,14 6,16 34,11 32,-6 34,-5 40,31 14,86 2,263 -18,262 -6,0 -22,-5 -35,-10 z"
           id="path903" />
        <path
           d="M 118,6648 C 45,6623 18,6588 12,6510 c -4,-51 -1,-59 25,-87 40,-43 89,-51 171,-29 36,9 76,25 90,34 27,17 52,68 52,103 0,37 -47,105 -84,123 -44,21 -77,19 -148,-6 z"
           id="path905" />
        <path
           d="m 10480,6310 c 0,-6 -13,-10 -30,-10 h -30 v -98 -99 l 393,-7 c 692,-12 1141,-35 1203,-61 23,-9 34,-22 39,-44 12,-55 0,-69 -63,-77 -91,-11 -970,35 -1256,66 -190,21 -227,23 -249,12 -12,-6 -33,-12 -47,-14 -37,-4 -51,-41 -48,-128 l 3,-75 110,-2 c 312,-7 1365,-102 1488,-134 29,-8 42,-7 54,3 9,7 26,11 39,10 36,-5 54,43 64,171 13,147 12,413 0,457 l -10,35 -830,2 c -532,2 -830,-1 -830,-7 z m 1634,-276 c 11,-29 6,-81 -9,-94 -13,-11 -15,-5 -15,49 0,58 11,79 24,45 z"
           id="path907" />
        <path
           d="m 12600,6289 c -80,-23 -111,-52 -117,-111 -9,-77 42,-138 114,-138 33,0 109,22 151,44 81,42 57,190 -36,216 -44,12 -32,13 -112,-11 z"
           id="path909" />
        <path
           d="m 160,5900 c -36,-4 -81,-12 -101,-17 -75,-21 -78,-37 -9,-52 69,-15 157,-13 205,4 22,8 48,15 58,15 23,0 33,26 17,45 -13,16 -56,17 -170,5 z"
           id="path911" />
        <path
           d="m 12475,5551 c -46,-13 -60,-22 -60,-36 0,-24 30,-33 120,-34 73,-1 202,28 188,43 -38,38 -165,52 -248,27 z"
           id="path913" />
        <path
           d="m 187,5259 c -127,-36 -156,-64 -86,-82 39,-10 153,-3 189,12 14,5 37,12 51,15 15,3 37,14 50,25 62,50 -68,69 -204,30 z"
           id="path915" />
        <path
           d="m 2455,5037 c -16,-5 -55,-22 -85,-37 -221,-111 -1289,-500 -1370,-500 -16,0 -32,-4 -35,-10 -3,-5 -19,-10 -36,-10 -16,0 -29,-4 -29,-10 0,-54 428,-972 520,-1113 30,-48 31,-49 56,-32 13,8 29,13 34,10 5,-3 38,11 73,30 74,40 260,112 462,178 166,54 215,65 215,47 0,-27 -537,-547 -581,-562 -33,-12 117,-238 158,-238 8,0 17,9 20,20 4,15 9,17 23,10 30,-16 37,-12 59,33 26,51 154,195 586,657 346,370 447,481 441,488 -9,8 -230,-59 -726,-223 -615,-203 -716,-235 -747,-235 -29,0 -29,11 0,30 80,51 340,199 637,363 452,248 646,360 713,408 4,3 -25,77 -66,165 -41,87 -111,237 -156,333 -101,219 -103,220 -166,198 z m 125,-238 c 0,-5 -4,-9 -10,-9 -5,0 -10,7 -10,16 0,8 5,12 10,9 6,-3 10,-10 10,-16 z m -73,-16 c 11,-28 -64,-83 -183,-137 -306,-137 -928,-400 -1078,-457 -46,-17 -63,-19 -82,-10 -25,11 -41,52 -29,71 12,20 156,82 589,255 449,179 744,293 764,294 7,1 16,-7 19,-16 z m 123,-292 c 0,-42 -107,-107 -560,-341 -611,-316 -679,-350 -705,-350 -31,0 -75,41 -75,70 0,46 39,70 430,255 113,53 300,140 415,192 420,191 495,217 495,174 z M 1088,4190 c 12,-33 -1,-41 -18,-11 -12,24 -13,54 -1,47 5,-3 14,-19 19,-36 z m 186,-409 c -8,-9 -42,31 -47,54 -7,41 6,38 29,-7 12,-24 20,-45 18,-47 z"
           id="path917" />
        <path
           d="m 12351,4926 c -7,-9 -17,-13 -22,-10 -15,9 -49,-6 -49,-21 0,-8 10,-21 23,-30 30,-19 138,-34 168,-22 13,5 35,11 48,13 33,7 41,12 41,29 0,19 -8,23 -76,34 -32,5 -73,13 -90,16 -21,5 -34,2 -43,-9 z"
           id="path919" />
        <path
           d="m 10152,4744 c -12,-8 -26,-13 -31,-10 -18,11 -67,-43 -99,-108 -18,-36 -32,-70 -32,-76 0,-5 96,-58 213,-116 527,-264 1080,-569 1148,-634 56,-54 67,-129 17,-115 -103,29 -1020,551 -1303,741 -52,36 -80,42 -88,22 -2,-7 -17,-13 -33,-13 -25,0 -33,-9 -66,-65 -63,-110 -63,-109 34,-157 146,-73 846,-495 1071,-645 156,-104 197,-142 197,-179 0,-44 -22,-45 -103,-7 -117,56 -957,601 -1139,739 -80,61 -98,68 -117,45 -6,-7 -22,-11 -34,-9 -20,4 -31,-7 -75,-74 -28,-43 -52,-83 -54,-90 -2,-6 65,-54 147,-105 212,-134 774,-507 940,-625 136,-97 225,-179 225,-206 0,-7 -6,-21 -12,-30 -12,-16 -25,-9 -144,66 -351,224 -1018,692 -1111,780 -30,28 -34,30 -60,17 -16,-7 -35,-12 -44,-11 -32,4 -147,-152 -135,-184 3,-8 13,-15 22,-15 42,0 741,-497 1065,-756 136,-109 189,-165 189,-198 0,-35 18,-42 45,-16 15,14 25,18 30,11 12,-20 22,-12 82,67 171,222 548,828 707,1136 63,122 68,142 34,131 -106,-33 -105,-34 -251,37 -217,106 -912,480 -1093,589 -45,27 -87,56 -94,64 -16,19 -20,19 -48,-1 z m 1314,-1017 c -5,-21 -33,-44 -42,-34 -2,1 6,17 18,35 23,36 34,36 24,-1 z m -226,-358 c -7,-11 -14,-18 -17,-15 -3,3 0,12 7,21 18,21 23,19 10,-6 z"
           id="path921" />
        <path
           d="m 390,4635 c -92,-31 -170,-73 -170,-90 0,-17 41,-20 86,-6 16,5 63,20 104,32 89,26 120,44 120,70 0,26 -54,24 -140,-6 z"
           id="path923" />
        <path
           d="m 12160,4310 c 0,-5 -13,-10 -29,-10 -17,0 -33,-5 -37,-12 -12,-19 33,-47 120,-72 110,-34 121,-35 120,-13 -1,9 -1,17 0,17 0,0 16,-4 33,-9 21,-6 35,-6 39,0 19,31 -124,109 -201,109 -25,0 -45,-4 -45,-10 z"
           id="path925" />
        <path
           d="m 635,4042 c -145,-50 -224,-104 -191,-131 16,-14 39,-10 161,30 98,32 145,65 145,104 0,32 -13,31 -115,-3 z"
           id="path927" />
        <path
           d="m 11915,3721 c -6,-5 -23,-11 -39,-13 -71,-8 -25,-50 95,-88 77,-24 95,-21 58,9 -29,25 -24,25 31,6 64,-23 69,-18 22,24 -66,61 -141,88 -167,62 z"
           id="path929" />
        <path
           d="m 825,3519 c -75,-25 -135,-79 -135,-123 0,-42 45,-102 94,-126 52,-25 52,-25 132,1 51,17 70,28 85,53 35,57 17,157 -33,190 -38,25 -78,26 -143,5 z"
           id="path931" />
        <path
           d="m 11631,3191 c -77,-25 -101,-50 -101,-101 0,-48 11,-73 53,-117 40,-42 61,-43 55,-3 -5,35 -4,36 24,10 36,-33 47,-26 45,30 -2,44 2,53 34,87 51,53 63,78 44,93 -24,20 -96,20 -154,1 z"
           id="path933" />
        <path
           d="m 3743,3155 c -12,-8 -29,-12 -38,-9 -24,10 -96,-71 -240,-266 -316,-428 -609,-816 -679,-899 -76,-91 -77,-93 -61,-117 22,-35 124,-112 164,-125 29,-10 36,-9 47,5 8,12 20,15 37,11 22,-6 28,-2 43,27 39,77 450,662 772,1098 67,91 122,170 122,177 0,11 -125,113 -139,113 -4,0 -16,-7 -28,-15 z"
           id="path935" />
        <path
           d="m 3950,3000 c -9,-17 -14,-18 -32,-9 -12,7 -23,7 -27,2 -3,-5 -89,-133 -190,-284 -407,-605 -617,-910 -685,-993 l -40,-49 26,-22 c 15,-13 66,-46 113,-75 87,-53 95,-54 108,-16 2,5 14,3 27,-4 20,-11 25,-11 29,1 33,101 366,620 711,1109 120,170 150,218 150,244 0,18 -48,55 -117,90 -63,31 -60,31 -73,6 z"
           id="path937" />
        <path
           d="m 1259,2911 c -26,-9 -64,-28 -86,-43 -44,-31 -119,-106 -112,-112 8,-7 136,40 190,70 64,37 94,68 86,89 -8,18 -18,18 -78,-4 z"
           id="path939" />
        <path
           d="m 8356,2715 c 8,-42 -1,-44 -38,-8 l -28,27 v -27 c 0,-41 -7,-14 258,-1067 50,-195 95,-389 102,-430 7,-41 14,-80 15,-87 5,-14 131,27 193,63 43,25 56,59 28,70 -8,3 -23,31 -34,62 -48,132 -187,662 -180,683 4,12 286,-297 389,-426 82,-102 101,-141 93,-184 -7,-35 -4,-37 35,-16 16,8 31,12 34,8 12,-11 276,147 313,188 l 19,21 -42,-7 c -52,-8 -70,1 -152,79 -83,79 -392,419 -652,716 -204,234 -333,370 -351,370 -5,0 -6,-16 -2,-35 z"
           id="path941" />
        <path
           d="m 4422,2618 c -19,-20 -24,-21 -32,-8 -8,12 -50,-26 -208,-185 -301,-305 -845,-873 -865,-906 -30,-46 -19,-69 46,-103 54,-29 59,-30 71,-14 8,10 24,16 41,15 22,-1 30,3 33,18 3,11 18,38 36,60 89,114 455,519 463,512 4,-4 -35,-150 -119,-442 -64,-225 -75,-255 -110,-296 -21,-26 -38,-49 -38,-52 0,-14 60,-60 120,-91 84,-43 118,-52 126,-31 4,9 16,15 28,14 42,-3 46,0 46,44 0,23 9,78 19,122 52,229 234,880 325,1163 68,211 70,232 18,180 z"
           id="path943" />
        <path
           d="m 11230,2634 c 0,-3 5,-14 10,-25 13,-23 3,-24 -24,-4 -59,45 -61,-9 -2,-63 69,-64 117,-70 81,-10 l -18,31 35,-26 c 31,-24 68,-36 68,-22 0,21 -37,70 -72,95 -37,27 -78,40 -78,24 z"
           id="path945" />
        <path
           d="m 1655,2398 c -95,-31 -185,-103 -185,-148 0,-25 12,-25 78,-1 64,24 141,79 164,119 25,43 8,52 -57,30 z"
           id="path947" />
        <path
           d="m 5915,2323 c -16,-2 -39,-8 -50,-13 -11,-4 -32,-11 -46,-14 -15,-3 -30,-13 -33,-22 -3,-9 -24,-177 -46,-374 -66,-593 -143,-1159 -165,-1213 -10,-25 40,-43 157,-56 119,-13 319,-14 350,-2 13,5 35,12 49,15 24,5 27,11 33,67 14,121 151,689 166,689 15,0 122,-466 150,-653 10,-71 10,-81 -6,-98 -32,-35 -7,-42 136,-37 80,3 135,9 142,16 7,7 21,12 33,12 11,0 27,4 35,10 12,8 12,11 -2,27 -31,34 -94,257 -188,663 -27,118 -70,303 -95,410 -62,270 -108,440 -117,440 -5,0 -13,-20 -20,-45 -15,-54 -24,-57 -32,-10 -4,19 -11,35 -15,35 -13,0 -74,-217 -191,-680 -149,-586 -210,-803 -230,-815 -5,-3 -14,4 -21,17 -20,37 2,378 60,938 25,237 41,388 57,524 9,84 13,151 8,156 -12,11 -81,18 -119,13 z"
           id="path949" />
        <path
           d="m 10810,2132 c 0,-32 149,-162 185,-162 24,0 -72,110 -131,151 -50,34 -54,35 -54,11 z"
           id="path951" />
        <path
           d="m 10740,2113 c 0,-35 169,-178 188,-159 14,14 -152,176 -180,176 -5,0 -8,-8 -8,-17 z"
           id="path953" />
        <path
           d="m 2114,1935 c -12,-8 -24,-12 -27,-8 -20,19 -197,-135 -197,-171 0,-24 19,-29 46,-11 13,9 29,13 34,10 25,-15 140,87 174,153 9,17 16,33 16,37 0,10 -26,5 -46,-10 z"
           id="path955" />
        <path
           d="m 10340,1678 c 0,-16 51,-68 67,-68 21,0 15,29 -12,55 -25,26 -55,33 -55,13 z"
           id="path957" />
        <path
           d="m 10276,1661 c -8,-12 42,-71 60,-71 22,0 17,28 -11,55 -25,26 -40,31 -49,16 z"
           id="path959" />
        <path
           d="m 2575,1521 c -6,-5 -23,-11 -39,-13 -52,-6 -164,-171 -141,-208 5,-8 14,-6 31,4 13,9 35,16 49,16 46,0 176,157 161,195 -6,17 -47,20 -61,6 z"
           id="path961" />
        <path
           d="m 9805,1310 c -9,-15 19,-61 64,-105 45,-43 51,-34 22,32 -29,63 -70,99 -86,73 z"
           id="path963" />
        <path
           d="m 9746,1293 c -16,-16 -2,-46 43,-95 27,-29 52,-51 55,-47 3,3 -8,33 -23,66 -27,57 -60,91 -75,76 z"
           id="path965" />
        <path
           d="m 2991,1139 c -81,-28 -118,-71 -105,-123 4,-18 11,-21 38,-18 44,5 100,-40 93,-75 -5,-29 4,-29 103,1 l 75,22 3,46 c 4,58 -13,123 -39,149 -24,24 -93,24 -168,-2 z"
           id="path967" />
        <path
           d="m 9285,983 c -22,-8 -52,-20 -67,-25 -39,-14 -68,-66 -68,-119 0,-55 6,-64 53,-84 49,-20 60,-19 52,6 -6,18 -4,20 17,13 40,-12 52,-10 53,11 0,14 13,23 53,35 85,24 93,66 25,131 -48,46 -68,52 -118,32 z"
           id="path969" />
        <path
           d="m 3672,828 c -12,-12 -22,-17 -22,-10 0,7 -7,12 -15,12 -36,0 -119,-180 -94,-204 10,-11 17,-5 53,49 13,19 14,18 9,-7 -6,-32 12,-38 34,-10 22,27 83,155 83,174 0,25 -21,23 -48,-4 z"
           id="path971" />
        <path
           d="m 8682,708 c -17,-17 -15,-43 4,-59 13,-10 17,-10 25,2 21,33 -4,82 -29,57 z"
           id="path973" />
        <path
           d="m 8603,674 c -7,-20 9,-49 28,-49 22,0 18,59 -4,63 -9,2 -20,-4 -24,-14 z"
           id="path975" />
        <path
           d="m 4261,579 c -10,-17 -15,-19 -21,-9 -4,7 -15,10 -24,7 -35,-14 -109,-208 -87,-230 6,-6 12,-9 14,-6 2,2 13,17 25,33 20,26 22,27 22,7 0,-11 4,-21 9,-21 29,0 111,156 111,210 0,36 -28,41 -49,9 z"
           id="path977" />
        <path
           d="m 8077,473 c -13,-12 -7,-41 12,-64 l 19,-24 11,28 c 16,42 -15,87 -42,60 z"
           id="path979" />
        <path
           d="m 8017,453 c -12,-11 -8,-48 7,-68 13,-18 14,-18 26,4 18,35 -9,88 -33,64 z"
           id="path981" />
        <path
           d="m 4881,398 c -8,-22 -24,-109 -36,-193 l -5,-40 20,37 c 30,55 71,184 64,202 -9,23 -33,19 -43,-6 z"
           id="path983" />
        <path
           d="m 4820,385 c -11,-14 -53,-226 -45,-233 5,-5 43,83 67,155 26,77 13,121 -22,78 z"
           id="path985" />
        <path
           d="m 7450,295 c 0,-25 5,-45 10,-45 6,0 10,20 10,45 0,25 -4,45 -10,45 -5,0 -10,-20 -10,-45 z"
           id="path987" />
        <path
           d="m 7387,307 c -10,-26 -9,-65 2,-71 12,-8 19,33 11,64 -5,22 -7,23 -13,7 z"
           id="path989" />
        <path
           d="m 5511,293 c -15,-29 -25,-138 -13,-158 9,-16 11,-15 28,11 14,20 19,46 19,93 0,66 -14,89 -34,54 z"
           id="path991" />
        <path
           d="m 5442,265 c -14,-29 -16,-165 -4,-165 18,0 42,73 42,130 0,66 -17,81 -38,35 z"
           id="path993" />
        <path
           d="m 6150,250 c -8,-5 -24,-10 -35,-10 -32,0 -91,-45 -109,-84 -22,-46 -8,-76 34,-76 20,0 31,-6 35,-20 8,-24 22,-25 46,-4 23,21 42,9 35,-21 -11,-42 32,-44 52,-2 9,18 11,19 11,5 1,-26 27,-22 50,8 16,20 21,41 21,86 0,55 -3,63 -34,94 -35,35 -75,44 -106,24 z m 83,-170 c -3,-11 -7,-20 -9,-20 -2,0 -4,9 -4,20 0,11 4,20 9,20 5,0 7,-9 4,-20 z"
           id="path995" />
        <path
           d="m 6806,245 c -3,-9 -6,-29 -7,-43 -1,-27 -1,-27 -15,6 -26,59 -54,28 -54,-60 0,-90 28,-104 52,-25 l 13,42 5,-35 c 7,-50 32,-45 49,9 10,31 11,55 5,80 -10,38 -37,53 -48,26 z"
           id="path997" />
        <path
           d="m 3824.5288,11421.692 c -15.7472,-1.423 -37.9623,1.967 -50.6363,7.997 -12.1814,6.901 -38.7168,4.693 -63.3661,-4.33 -65.2774,-23.934 -151.6935,-66.926 -158.5939,-79.107 -3.4504,-6.091 3.6863,-23.925 16.2749,-40.251 12.5886,-16.325 31.967,-57.185 42.3826,-89.519 30.8703,-95.641 73.8905,-388.948 58.0275,-392.604 -8.1779,-2.263 -175.562,146.574 -231.5998,205.902 -62.8826,65.504 -78.7504,96.329 -63.9636,122.432 17.2512,30.453 4.3154,40.08 -35.4425,24.675 -35.176,-13.404 -36.0461,-12.911 -30.4231,9.189 5.1302,21.229 3.39,22.215 -38.6009,6.926 -72.0922,-25.821 -340.414,-182.985 -335.772,-197.107 0.2616,-3.597 15.7774,-6.64 35.0049,-7.188 17.8647,-0.926 34.2506,-4.462 34.512,-8.057 1.1317,-4.089 20.6207,-8.233 42.4585,-10.26 35.7292,-1.851 47.0405,-8.26 105.1353,-53.811 153.2566,-118.998 473.5249,-419.952 538.4697,-506.162 59.2011,-76.06 157.1564,-631.4986 126.9792,-721.2891 -12.262,-37.8768 -6.5184,-48.0262 25.7304,-47.9057 14.7614,-0.317 30.6544,-4.7229 36.6294,-10.4062 15.4302,-13.3381 68.2094,2.7357 132.8179,39.6917 87.749,51.4306 92.5622,57.8985 65.2676,92.8985 -12.5886,16.3256 -31.2425,62.5211 -42.1814,102.048 -28.3203,110.2865 -49.2266,294.5248 -34.2338,298.6738 19.0819,5.281 223.6533,-203.6993 241.1758,-245.8063 14.2733,-35.6688 31.1821,-46.3959 54.4685,-37.7504 10.0339,3.51 24.1866,0.09 32.2791,-7.9423 8.0923,-8.0319 25.3482,-12.0605 40.7183,-9.2743 30.8557,7.8055 204.9052,99.994 212.2985,113.045 6.9005,12.182 8.6407,11.196 -180.7272,167.8903 -188.0048,157.071 -359.7695,316.435 -401.9159,375.939 -17.0848,24.619 -40.8135,67.942 -51.8378,97.173 -38.4696,104.543 -110.8862,530.582 -115.0546,683.503 -2.2983,50.722 2.5704,75.547 14.4298,88.367 22.2404,23.03 14.3795,35.528 -20.711,32.42 z"
           id="path1090"
           inkscape:transform-center-x="1.181442"
           inkscape:transform-center-y="0.57019645" />
        <path
           d="m 4039.6595,11544.18 c 14.4951,-8.882 17.1312,-15.051 8.6675,-22.558 -19.0435,-16.892 -14.4706,-24.179 25.841,-53.64 68.1841,-49.163 155.7312,-226.711 491.0551,-1001.132 112.6535,-260.197 206.9735,-475.2167 208.8504,-477.3326 3.6344,-6.2283 135.1104,48.0126 166.3714,68.1806 22.9765,15.655 24.0942,17.591 11.6905,61.41 -7.4901,25.494 -129.2116,318.291 -270.5633,651.332 -250.3112,588.008 -341.858,815.885 -341.0038,846.89 0.478,7.986 -5.7328,21.381 -12.2422,29.785 -8.446,9.521 -10.6042,23.675 -5.6552,39.408 7.4234,23.598 6.4848,24.657 -30.8075,20.878 -46.3958,-5.237 -194.3213,-66.507 -239.3359,-98.875 -36.7302,-27.855 -40.8601,-46.642 -12.868,-64.346 z"
           id="path1092" />
        <path
           d="m 9666.2405,11145.941 c -15.1145,-7.781 -18.2015,-13.737 -10.3186,-21.852 17.7365,-18.259 12.6352,-25.186 -29.7527,-51.573 -71.6465,-43.964 -172.1358,-214.521 -564.039,-961.904 -131.6634,-251.1146 -241.6895,-458.5369 -243.7183,-460.5077 -4.0868,-5.9412 -131.1722,57.9127 -160.8493,80.3464 -21.7506,17.318 -22.7215,19.3316 -7.0982,62.1085 9.3625,24.8677 152.4897,307.8188 318.1812,629.4438 293.2829,567.798 401.4983,788.247 402.9487,819.231 0.1163,7.999 7.3045,20.896 14.42,28.794 9.1298,8.867 12.333,22.821 8.566,38.878 -5.6508,24.085 -4.6361,25.071 32.2727,18.533 45.8788,-8.667 188.8462,-80.753 231.333,-116.374 34.5604,-30.505 37.284,-49.547 8.0545,-65.124 z"
           id="path1094" />
      </g>
    </g>
  </g>
</svg>
