<?xml version="1.0" encoding="UTF-8" standalone="no"?>
<svg
   xmlns:dc="http://purl.org/dc/elements/1.1/"
   xmlns:cc="http://creativecommons.org/ns#"
   xmlns:rdf="http://www.w3.org/1999/02/22-rdf-syntax-ns#"
   xmlns:svg="http://www.w3.org/2000/svg"
   xmlns="http://www.w3.org/2000/svg"
   xmlns:sodipodi="http://sodipodi.sourceforge.net/DTD/sodipodi-0.dtd"
   xmlns:inkscape="http://www.inkscape.org/namespaces/inkscape"
   width="600"
   height="600"
   viewBox="0 0 158.75 158.75"
   version="1.1"
   id="svg8"
   inkscape:version="1.0.2-2 (e86c870879, 2021-01-15)"
   sodipodi:docname="bg_classic.svg">
  <defs
     id="defs2" />
  <sodipodi:namedview
     id="base"
     pagecolor="#ffffff"
     bordercolor="#666666"
     borderopacity="1.0"
     inkscape:pageopacity="0.0"
     inkscape:pageshadow="2"
     inkscape:zoom="0.7"
     inkscape:cx="182.81"
     inkscape:cy="427.54534"
     inkscape:document-units="mm"
     inkscape:current-layer="g999"
     inkscape:document-rotation="0"
     showgrid="false"
     inkscape:snap-global="false"
     inkscape:window-width="1920"
     inkscape:window-height="1001"
     inkscape:window-x="-9"
     inkscape:window-y="-9"
     inkscape:window-maximized="1"
     units="px" />
  <metadata
     id="metadata5">
    <rdf:RDF>
      <cc:Work
         rdf:about="">
        <dc:format>image/svg+xml</dc:format>
        <dc:type
           rdf:resource="http://purl.org/dc/dcmitype/StillImage" />
        <dc:title></dc:title>
      </cc:Work>
    </rdf:RDF>
  </metadata>
  <g
     inkscape:label="Katman 1"
     inkscape:groupmode="layer"
     id="layer1">
    <g
       transform="matrix(0.03527778,0,0,-0.03527778,-106.29451,331.42028)"
       fill="#000000"
       stroke="none"
       id="g999">
      <g
         id="g2116"
         transform="matrix(0.35174979,0,0,0.35179423,7811.9102,1605.8116)"
         style="fill:#000000;stroke:none">
        <g
           transform="translate(-13648.758,9343.5875)"
           fill="#000000"
           stroke="none"
           id="g1746">
          <path
             d="m 6095,12794 c -27,-2 -115,-8 -195,-14 C 4716,12693 3527,12247 2575,11531 1296,10570 423,9185 121,7640 35,7200 6,6883 6,6400 6,5998 17,5831 66,5490 242,4261 761,3132 1584,2185 1708,2043 2013,1736 2160,1607 2762,1077 3435,674 4183,396 4705,203 5244,81 5845,23 c 253,-24 857,-24 1110,0 599,58 1142,180 1662,373 248,92 358,140 628,274 1435,710 2555,1939 3130,3435 366,951 499,1990 384,3010 -211,1878 -1228,3546 -2814,4615 -279,188 -766,449 -1080,578 -634,260 -1216,403 -1905,468 -145,14 -754,26 -865,18 z m 836,-379 c 1250,-112 2404,-594 3369,-1405 174,-146 564,-536 710,-710 1122,-1335 1612,-3048 1364,-4770 -160,-1114 -621,-2140 -1360,-3025 -206,-246 -568,-599 -839,-817 C 9343,1018 8328,577 7269,425 6945,379 6770,367 6400,367 6029,366 5846,379 5525,426 3943,658 2531,1499 1565,2785 1053,3467 692,4251 505,5089 c -99,447 -138,813 -139,1306 0,494 39,869 139,1316 212,950 635,1807 1269,2569 149,180 546,579 725,729 763,641 1634,1073 2590,1286 345,76 634,114 1056,139 126,8 627,-4 786,-19 z"
             id="path1666" />
          <path
             d="M 5975,12259 C 4690,12158 3549,11687 2569,10853 2424,10730 2073,10379 1947,10231 1125,9267 646,8118 545,6867 c -20,-244 -20,-690 0,-934 102,-1259 587,-2415 1419,-3383 124,-145 456,-475 601,-599 888,-759 1933,-1226 3080,-1376 461,-60 1049,-60 1510,0 937,123 1832,467 2590,997 1459,1020 2368,2599 2510,4361 19,244 19,690 0,934 -93,1145 -513,2232 -1209,3127 -218,280 -570,651 -815,859 -986,838 -2130,1309 -3420,1407 -154,11 -686,11 -836,-1 z m 730,-49 c 1043,-57 2021,-377 2885,-944 187,-123 432,-307 595,-446 154,-133 502,-481 635,-635 296,-346 575,-766 776,-1168 344,-686 533,-1359 605,-2157 16,-177 17,-726 1,-910 -107,-1245 -554,-2336 -1346,-3290 -154,-186 -529,-562 -716,-716 C 9320,1263 8390,834 7355,661 c -331,-55 -582,-75 -955,-75 -373,0 -624,20 -955,75 -1034,173 -1966,603 -2785,1283 -187,154 -562,530 -716,716 -294,354 -516,688 -715,1075 -361,703 -555,1382 -630,2205 -16,174 -16,746 0,920 73,803 260,1469 605,2158 202,402 479,820 776,1167 133,154 481,502 635,635 1135,971 2605,1471 4090,1390 z"
             id="path1668" />
          <path
             d="M 6095,12104 C 5477,12064 4928,11949 4395,11748 2776,11137 1522,9834 979,8198 681,7299 612,6320 781,5380 936,4522 1292,3700 1813,3000 3102,1267 5235,410 7360,771 c 1565,266 2949,1175 3822,2509 450,687 744,1463 867,2280 44,292 55,469 55,840 0,371 -11,548 -55,840 -66,439 -189,894 -349,1285 -33,83 -68,170 -78,195 -9,25 -19,47 -22,50 -3,3 -40,77 -84,165 -200,407 -480,832 -787,1190 -145,170 -478,499 -649,641 -915,762 -1967,1204 -3140,1319 -157,16 -706,28 -845,19 z m 764,-34 c 57,-5 104,-11 105,-12 5,-7 -11,-269 -16,-274 -3,-3 -68,0 -144,6 -169,13 -648,13 -804,0 -63,-5 -122,-10 -131,-10 -13,0 -19,19 -28,98 -7,53 -14,116 -17,139 l -6,41 63,7 c 230,24 738,27 978,5 z m -1045,-155 c 8,-71 12,-132 8,-136 -4,-3 -68,-13 -142,-23 -74,-9 -193,-28 -265,-41 -71,-13 -131,-23 -132,-21 -2,1 -14,54 -28,117 -14,63 -27,124 -30,135 -4,20 2,23 108,43 100,18 344,55 422,63 17,2 33,1 37,-2 3,-3 13,-63 22,-135 z m 1361,120 c 115,-15 332,-51 366,-61 14,-4 13,-20 -12,-142 -14,-75 -31,-136 -36,-135 -59,11 -395,64 -447,70 l -69,8 2,85 c 1,47 4,111 7,142 l 6,56 32,-4 c 17,-2 85,-11 151,-19 z m -1975,-82 c 0,-5 14,-66 30,-138 16,-71 28,-130 27,-131 -1,0 -47,-11 -102,-24 -86,-19 -353,-92 -390,-106 -11,-4 -60,117 -99,242 -6,20 1,24 78,48 90,28 422,115 444,115 6,1 12,-2 12,-6 z m 2611,-43 c 252,-64 335,-92 331,-111 -3,-16 -83,-242 -87,-247 -1,-1 -72,17 -156,42 -85,24 -199,54 -254,66 -55,13 -104,26 -109,31 -7,6 29,241 41,262 8,13 38,8 234,-43 z m -3150,-167 c 12,-38 33,-97 45,-132 13,-36 23,-66 21,-67 -1,-1 -72,-27 -159,-58 -86,-31 -198,-74 -249,-96 -51,-22 -93,-39 -95,-37 -7,8 -125,250 -122,252 19,14 507,203 530,205 3,0 16,-30 29,-67 z m 3858,-62 c 90,-37 159,-67 169,-76 9,-7 -112,-255 -122,-251 -79,35 -275,111 -361,141 -60,21 -114,41 -118,45 -5,4 12,66 38,138 l 47,130 121,-43 c 67,-24 169,-62 226,-84 z m -1744,89 c 1584,-116 3002,-894 3952,-2170 515,-691 861,-1519 992,-2375 47,-304 55,-425 56,-815 0,-382 -6,-484 -46,-765 C 11500,4023 10544,2596 9125,1758 8453,1361 7715,1124 6890,1038 c -168,-17 -812,-17 -980,0 -845,88 -1578,328 -2275,745 -1006,601 -1801,1534 -2235,2621 -208,523 -331,1064 -371,1641 -15,214 -6,707 16,905 99,894 381,1686 860,2410 664,1005 1644,1762 2770,2139 473,158 839,230 1400,274 100,8 574,6 700,-3 z m 2177,-286 c 73,-36 196,-103 273,-147 138,-78 478,-298 489,-315 6,-9 -153,-228 -163,-225 -3,1 -77,49 -163,106 -193,129 -433,267 -636,364 l -152,73 14,33 c 7,17 33,75 56,128 l 42,97 53,-24 c 29,-12 113,-53 187,-90 z m -4812,-14 c 33,-66 60,-122 60,-125 0,-3 -69,-38 -152,-78 -201,-96 -426,-225 -623,-356 -88,-58 -165,-109 -172,-114 -7,-4 -38,31 -87,103 -42,60 -76,114 -76,119 0,15 318,223 490,321 136,78 475,250 492,250 4,0 35,-54 68,-120 z m -996,-579 c 42,-60 76,-111 76,-113 0,-3 -54,-46 -120,-97 -65,-51 -155,-124 -199,-162 -45,-38 -84,-69 -89,-69 -5,0 -53,42 -107,93 l -99,93 42,38 c 115,104 396,326 413,326 4,0 42,-49 83,-109 z m 6714,25 c 94,-73 211,-167 286,-234 l 37,-32 -92,-100 c -51,-55 -96,-100 -101,-100 -5,0 -46,32 -91,71 -45,39 -135,112 -200,162 -70,55 -116,96 -113,104 15,37 153,212 164,208 7,-3 57,-38 110,-79 z m 552,-485 c 110,-109 200,-203 199,-207 0,-9 -202,-174 -211,-174 -3,0 -91,86 -197,190 l -192,191 92,99 c 51,55 96,100 101,100 5,0 98,-89 208,-199 z m -7719,92 96,-98 -194,-191 -194,-192 -104,90 -104,91 57,65 c 60,69 331,332 341,332 4,0 50,-44 102,-97 z m -410,-409 c 55,-47 99,-88 99,-92 0,-4 -36,-49 -80,-100 -44,-51 -118,-142 -165,-203 -61,-77 -90,-107 -100,-102 -30,17 -214,148 -215,153 -1,18 338,429 354,430 4,0 53,-38 107,-86 z m 8425,1 c 305,-351 573,-753 793,-1192 l 81,-163 -28,-14 c -15,-8 -73,-35 -130,-59 l -102,-46 -54,114 c -107,226 -283,525 -435,739 l -70,100 107,78 c 59,43 109,84 111,90 6,19 -21,3 -123,-71 -54,-39 -102,-71 -106,-71 -4,0 -45,48 -91,108 -72,91 -157,194 -231,278 -19,21 -18,22 89,108 59,47 110,85 113,84 4,-2 38,-39 76,-83 z M 1922,9667 c 54,-37 100,-72 103,-77 3,-5 -24,-50 -61,-102 -146,-206 -324,-510 -430,-733 l -54,-113 -127,50 c -71,28 -130,53 -132,55 -8,6 157,331 241,478 150,261 332,530 351,518 7,-4 56,-38 109,-76 z m 9694,-994 c 70,-156 181,-459 171,-469 -11,-11 -257,-82 -261,-75 -2,3 -27,67 -54,141 -28,74 -71,184 -96,243 l -45,108 77,34 c 42,19 95,44 117,54 22,11 46,20 53,20 7,1 24,-25 38,-56 z m -10300,11 c 49,-20 103,-42 121,-49 l 32,-14 -45,-108 c -25,-59 -69,-171 -97,-248 -28,-77 -51,-141 -52,-142 -2,-4 -260,69 -266,75 -14,15 186,522 206,522 6,0 51,-16 101,-36 z m 10497,-526 c 3,-13 26,-93 51,-178 49,-166 91,-339 84,-346 -5,-4 -203,-49 -246,-56 -22,-3 -25,5 -67,167 -24,94 -57,211 -73,262 l -29,92 56,17 c 31,9 90,27 131,40 94,28 87,28 93,2 z M 1098,8146 c 48,-14 106,-29 128,-35 l 42,-11 -30,-93 c -16,-50 -49,-168 -73,-262 -29,-113 -48,-170 -57,-169 -7,1 -68,11 -135,24 -112,21 -123,25 -123,44 0,54 136,526 151,526 6,0 49,-11 97,-24 z m 10872,-588 c 21,-98 68,-393 72,-448 l 3,-54 -132,-20 c -73,-11 -135,-17 -138,-15 -2,3 -14,70 -25,150 -12,79 -31,197 -44,261 l -23,117 96,21 c 53,12 110,25 126,30 50,14 53,12 65,-42 z M 985,7575 c 71,-14 130,-25 130,-25 1,0 -9,-53 -21,-117 -13,-65 -32,-183 -44,-263 -12,-79 -23,-146 -26,-149 -6,-6 -258,30 -267,39 -12,11 51,425 79,523 7,21 -6,22 149,-8 z m -82,-564 c 64,-10 119,-20 121,-22 2,-2 -1,-40 -6,-84 -23,-213 -25,-789 -3,-972 l 6,-52 -43,-5 c -24,-3 -86,-8 -140,-11 -87,-6 -97,-4 -102,12 -13,47 -28,485 -22,662 7,199 22,428 31,469 6,26 7,26 158,3 z m 11151,2 c 36,-120 39,-1113 4,-1149 -5,-5 -267,31 -273,38 -1,2 1,53 6,113 18,228 7,848 -16,953 -3,12 -4,22 -3,23 23,5 230,37 250,38 17,1 28,-5 32,-16 z m 4,-1178 c 9,-8 -71,-541 -83,-554 -7,-6 -265,41 -270,50 -3,3 4,56 15,115 17,90 60,396 60,423 0,6 269,-27 278,-34 z M 1041,5703 c 10,-82 28,-199 39,-258 10,-60 18,-110 17,-111 -4,-4 -272,-53 -275,-50 -11,11 -88,543 -80,552 4,3 271,20 276,18 2,-1 12,-69 23,-151 z m 91,-516 c 15,-67 46,-185 68,-262 21,-76 38,-140 37,-141 -11,-11 -261,-74 -267,-68 -15,15 -113,383 -135,506 -7,36 -7,37 32,44 21,4 79,15 128,25 50,9 95,18 100,18 6,1 22,-54 37,-122 z m 10707,92 c 64,-12 120,-25 124,-29 13,-12 -115,-525 -136,-546 -3,-3 -64,13 -136,36 -108,34 -131,45 -127,58 30,98 80,284 102,381 19,85 32,121 42,121 8,0 66,-10 131,-21 z M 1290,4638 c 23,-68 64,-178 91,-246 27,-68 49,-127 49,-132 0,-6 -55,-37 -121,-71 -95,-47 -124,-58 -130,-47 -28,43 -208,534 -198,541 4,4 248,75 260,76 4,1 26,-54 49,-121 z m 10411,75 c 139,-43 133,-12 48,-249 -75,-207 -124,-320 -138,-317 -28,7 -241,106 -241,113 0,5 29,82 64,172 35,89 76,200 91,246 21,64 31,82 42,78 9,-4 69,-23 134,-43 z M 1476,4168 c 92,-211 296,-575 447,-796 39,-58 66,-107 61,-111 -5,-5 -56,-43 -113,-85 l -103,-76 -31,43 c -66,90 -198,299 -277,437 -87,150 -260,496 -260,517 0,11 220,131 242,132 4,1 19,-27 34,-61 z m 10005,11 c 63,-28 118,-55 123,-59 18,-17 -219,-476 -377,-730 -46,-74 -176,-269 -193,-288 -2,-3 -95,59 -232,154 -2,1 30,51 71,110 151,221 357,587 451,802 15,34 31,62 35,62 4,0 59,-23 122,-51 z M 2076,3158 c 38,-51 115,-149 172,-217 57,-67 102,-124 100,-125 -2,-1 -49,-41 -105,-89 -56,-48 -104,-87 -107,-87 -8,0 -191,221 -280,338 l -76,102 112,84 c 62,47 113,85 114,86 0,0 32,-42 70,-92 z m 8836,-5 108,-74 -77,-101 c -103,-136 -271,-338 -282,-338 -10,0 -205,158 -209,170 -2,5 43,64 100,132 57,67 132,162 167,210 36,48 69,84 75,81 6,-4 59,-40 118,-80 z M 2739,2412 c 1,-4 -38,-53 -86,-109 l -87,-102 -65,59 c -60,53 -131,125 -294,296 l -59,61 107,91 107,91 188,-190 c 104,-105 189,-194 189,-197 z m 7797,296 c 57,-46 102,-89 101,-95 -3,-17 -262,-289 -333,-349 l -55,-47 -98,97 -97,97 185,189 c 102,104 188,189 190,189 2,1 50,-36 107,-81 z M 2882,2297 c 84,-72 274,-224 296,-236 10,-6 -6,-36 -69,-124 l -82,-116 -45,32 c -54,39 -268,214 -345,282 l -56,50 92,107 c 90,104 92,106 112,89 11,-10 55,-48 97,-84 z m 7289,-155 c -82,-73 -295,-247 -353,-289 l -44,-32 -87,104 c -48,58 -87,109 -87,114 0,5 12,17 28,26 38,25 242,190 332,269 l 75,65 100,-100 100,-100 z M 3351,1939 c 177,-123 405,-258 619,-367 102,-51 186,-97 188,-102 4,-10 -86,-231 -99,-244 -10,-11 -263,111 -449,217 -234,133 -564,350 -558,367 12,33 155,227 164,221 5,-3 66,-45 135,-92 z m 6313,-21 c 47,-56 86,-105 86,-109 0,-13 -246,-178 -435,-292 -161,-97 -498,-275 -550,-291 -18,-5 -28,10 -82,118 l -62,124 183,91 c 209,105 478,262 646,380 63,44 118,80 122,81 3,0 45,-46 92,-102 z M 4344,1401 c 78,-32 191,-75 251,-96 61,-21 111,-39 112,-40 2,-1 -17,-60 -41,-131 -40,-120 -45,-129 -67,-126 -43,5 -496,177 -516,196 -7,6 102,256 111,256 5,0 73,-26 150,-59 z m 4316,-61 c 33,-66 60,-123 60,-128 0,-14 -393,-171 -515,-206 -18,-5 -25,8 -63,117 -23,67 -42,127 -42,133 0,6 53,30 118,53 64,23 173,66 242,95 69,30 128,54 132,55 5,0 35,-53 68,-119 z M 5140,1144 c 63,-15 116,-28 117,-28 1,-1 -11,-60 -27,-131 -16,-72 -30,-133 -30,-138 0,-4 -10,-5 -22,-2 -168,37 -349,85 -475,126 l -61,20 44,133 45,133 147,-43 c 81,-24 199,-56 262,-70 z m 2980,-22 c 34,-98 40,-126 30,-132 -30,-19 -446,-132 -519,-142 -23,-3 -26,2 -52,112 -16,63 -28,124 -29,136 0,19 14,24 133,53 72,18 188,49 257,70 69,21 128,35 131,32 3,-3 25,-62 49,-129 z m -2650,-46 c 80,-13 186,-30 235,-36 50,-6 95,-13 101,-15 7,-2 6,-40 -2,-126 -7,-68 -13,-130 -13,-136 -1,-18 -46,-16 -202,7 -118,18 -361,60 -366,64 -2,1 39,202 52,254 5,19 11,23 28,19 12,-3 87,-17 167,-31 z m 2059,-3 c 22,-78 55,-233 50,-237 -17,-16 -553,-96 -565,-84 -6,7 -33,202 -34,248 0,26 1,26 138,44 75,9 191,28 257,40 66,13 125,24 132,25 7,0 17,-16 22,-36 z m -1519,-63 c 167,-14 610,-13 789,0 79,6 146,8 149,5 5,-5 42,-267 38,-272 -8,-11 -362,-27 -586,-27 -232,0 -575,16 -586,27 -2,2 22,256 25,275 1,4 41,2 171,-8 z"
             id="path1670" />
          <path
             d="m 6245,12025 c -33,-32 -36,-114 -5,-145 45,-45 143,-14 143,45 0,38 -28,57 -76,53 -33,-3 -37,-1 -35,17 3,18 9,20 57,17 55,-3 55,-3 36,18 -27,29 -89,27 -120,-5 z m 81,-79 c 15,-12 17,-18 8,-33 -16,-26 -50,-28 -63,-4 -8,15 -7,23 5,35 19,20 25,20 50,2 z"
             id="path1672" />
          <path
             d="m 6431,12024 c -29,-36 -29,-116 -1,-144 26,-26 89,-27 121,-1 19,16 23,28 23,76 0,48 -4,60 -23,76 -36,29 -95,25 -120,-7 z m 89,-24 c 15,-29 8,-91 -11,-103 -32,-20 -49,-1 -49,56 0,30 3,57 7,60 13,14 43,6 53,-13 z"
             id="path1674" />
          <path
             d="m 9092,11281 c -33,-41 -29,-51 17,-51 42,0 62,-60 25,-74 -20,-8 -54,11 -54,29 0,14 -37,31 -46,22 -11,-10 26,-64 51,-75 60,-28 115,-4 115,51 0,26 -40,67 -66,67 -8,0 -14,4 -14,9 0,21 21,21 60,1 38,-19 60,-20 60,-1 0,9 -92,61 -107,61 -5,0 -24,-18 -41,-39 z"
             id="path1704" />
          <path
             d="m 3667,11323 c -51,-29 -52,-32 -27,-98 12,-32 23,-32 53,1 30,32 67,26 67,-11 0,-26 -30,-48 -52,-40 -7,3 -22,-1 -33,-9 -19,-14 -19,-15 8,-21 38,-10 75,1 103,32 31,33 28,69 -7,95 -24,18 -28,19 -63,4 -46,-19 -50,-20 -54,-8 -2,6 17,22 42,37 25,15 43,31 40,36 -9,14 -26,10 -77,-18 z"
             id="path1706" />
          <path
             d="m 3505,11232 c -54,-30 -58,-41 -32,-104 l 13,-33 25,26 c 35,37 56,42 74,17 13,-20 13,-24 -2,-41 -11,-11 -25,-16 -38,-13 -12,3 -30,-1 -41,-8 -18,-14 -18,-15 9,-25 52,-20 127,30 127,85 0,47 -63,70 -108,38 -21,-14 -42,-12 -42,5 0,5 20,19 45,32 42,22 52,39 29,46 -5,1 -31,-10 -59,-25 z"
             id="path1708" />
          <path
             d="m 11114,9395 c 3,-8 9,-22 12,-30 4,-9 -11,-24 -45,-45 -54,-34 -59,-41 -37,-59 19,-16 168,72 159,94 -3,8 -13,15 -23,15 -9,0 -25,9 -35,20 -21,24 -40,26 -31,5 z"
             id="path1710" />
          <path
             d="m 11164,9230 c -42,-27 -60,-70 -44,-102 39,-73 98,-79 168,-15 29,27 28,68 -4,106 -31,37 -73,41 -120,11 z m 105,-38 c 12,-23 5,-34 -39,-61 -42,-25 -66,-27 -74,-5 -10,27 -7,32 31,59 44,30 69,32 82,7 z"
             id="path1712" />
          <path
             d="m 1595,9346 c -53,-53 -38,-111 39,-150 50,-25 84,-13 111,37 18,34 19,39 5,64 -20,35 -76,73 -107,73 -13,0 -35,-11 -48,-24 z m 82,-41 c 45,-27 55,-53 28,-75 -12,-10 -23,-7 -60,14 -45,27 -56,51 -33,74 16,16 14,16 65,-13 z"
             id="path1714" />
          <path
             d="m 1483,9168 -32,-53 37,-38 c 34,-34 38,-36 49,-20 7,9 13,24 13,34 0,24 26,42 50,34 34,-11 25,-52 -17,-74 -27,-14 -30,-41 -5,-41 24,0 69,48 77,82 8,30 -7,63 -35,78 -28,15 -66,-3 -85,-41 -13,-24 -19,-29 -28,-20 -9,9 -6,22 11,52 21,36 22,59 4,59 -4,0 -21,-24 -39,-52 z"
             id="path1716" />
          <path
             d="m 849,6581 c -18,-14 -24,-29 -24,-60 0,-31 -3,-41 -14,-39 -9,2 -14,19 -15,53 -1,39 -5,50 -18,53 -16,3 -18,-5 -18,-62 0,-36 3,-67 8,-69 4,-3 28,-8 55,-12 43,-7 47,-6 47,13 0,12 -4,24 -10,27 -15,9 -12,41 5,55 24,20 55,3 55,-31 0,-16 -4,-29 -10,-29 -5,0 -10,-11 -10,-25 0,-30 11,-32 33,-7 11,12 17,36 17,65 0,37 -5,49 -26,66 -33,26 -45,26 -75,2 z"
             id="path1718" />
          <path
             d="m 880,6395 c 0,-12 -13,-15 -60,-15 -59,0 -60,-1 -60,-27 0,-22 12,-37 57,-72 76,-58 87,-58 91,2 3,39 6,47 23,47 14,0 19,7 19,25 0,18 -5,25 -20,25 -11,0 -20,7 -20,15 0,8 -7,15 -15,15 -8,0 -15,-7 -15,-15 z m 0,-96 v -30 l -35,27 c -19,14 -35,28 -35,30 0,2 16,4 35,4 32,0 35,-2 35,-31 z"
             id="path1720" />
          <path
             d="m 11968,6583 c -3,-27 -6,-28 -65,-31 -55,-3 -63,-6 -63,-22 0,-18 7,-20 90,-20 95,0 104,5 75,44 -8,11 -15,28 -15,38 0,29 -18,21 -22,-9 z"
             id="path1722" />
          <path
             d="m 11849,6413 c -21,-24 -18,-97 5,-122 23,-26 67,-27 89,-3 10,10 17,35 17,55 0,26 4,37 15,37 11,0 15,-12 15,-50 0,-38 4,-50 15,-50 12,0 15,14 15,64 v 64 l -36,6 c -19,4 -42,10 -51,13 -13,5 -14,-1 -8,-44 5,-37 3,-52 -8,-61 -33,-28 -73,24 -43,57 20,22 21,51 2,51 -7,0 -20,-7 -27,-17 z"
             id="path1724" />
          <path
             d="m 1461,3761 c -11,-7 -8,-16 13,-47 22,-33 24,-40 11,-53 -20,-23 -1,-55 24,-42 12,7 22,6 29,-1 8,-8 14,-4 21,14 5,14 28,36 50,48 36,21 38,25 29,46 -6,13 -18,26 -27,28 -38,11 -137,16 -150,7 z m 118,-31 c 10,0 3,-9 -17,-21 -32,-21 -33,-21 -47,-3 -22,29 -18,37 16,30 17,-3 39,-6 48,-6 z"
             id="path1726" />
          <path
             d="m 1614,3626 c -35,-15 -74,-60 -74,-85 0,-28 38,-80 64,-87 33,-8 61,2 102,38 37,33 42,54 19,98 -25,49 -57,59 -111,36 z m 79,-48 c 16,-24 2,-45 -43,-68 -33,-17 -45,-19 -56,-9 -25,21 -16,47 29,73 45,28 55,28 70,4 z"
             id="path1728" />
          <path
             d="m 11196,3809 c -45,-53 -32,-105 34,-139 52,-27 66,-25 101,9 49,50 35,112 -35,145 -49,23 -71,20 -100,-15 z m 92,-39 c 46,-33 49,-41 26,-64 -21,-21 -25,-21 -72,14 -43,31 -51,47 -30,68 18,18 31,15 76,-18 z"
             id="path1730" />
          <path
             d="m 11098,3663 c -39,-45 -48,-92 -23,-113 21,-18 29,-6 30,43 0,38 2,42 25,42 24,0 25,-3 28,-72 2,-48 8,-75 18,-84 8,-6 16,-10 18,-8 1,2 22,33 46,68 33,50 39,65 29,72 -10,6 -19,2 -29,-13 -8,-12 -23,-31 -32,-42 -17,-20 -18,-19 -16,35 1,35 -3,63 -11,73 -18,21 -64,20 -83,-1 z"
             id="path1732" />
          <path
             d="m 3484,1738 c -12,-19 25,-39 47,-25 15,9 22,8 35,-5 23,-23 4,-47 -31,-40 -29,5 -32,-4 -9,-29 18,-20 13,-49 -8,-49 -21,0 -39,16 -42,34 -2,17 -23,36 -38,36 -5,0 -8,-10 -8,-23 0,-36 64,-87 108,-87 29,0 54,33 47,62 -5,20 -2,26 14,31 21,5 29,41 13,63 -26,37 -111,59 -128,32 z"
             id="path1734" />
          <path
             d="m 3660,1625 c -37,-38 -35,-44 13,-60 24,-7 33,-17 35,-36 2,-17 -3,-29 -13,-33 -20,-7 -55,10 -55,27 0,7 -9,18 -20,25 -17,10 -21,10 -26,-2 -14,-36 47,-86 104,-86 34,0 62,27 62,59 0,24 -44,71 -68,71 -12,0 -12,3 -2,15 11,13 18,11 55,-11 27,-16 46,-21 50,-14 3,5 4,14 0,19 -4,7 -92,61 -99,61 -1,0 -17,-16 -36,-35 z"
             id="path1736" />
          <path
             d="m 9223,1740 -51,-29 14,-47 c 8,-26 16,-49 18,-51 2,-2 17,8 34,22 34,28 54,31 71,11 22,-26 -19,-69 -49,-51 -5,3 -19,0 -31,-9 l -21,-14 22,-12 c 44,-23 130,30 130,80 0,53 -61,77 -109,44 -19,-14 -25,-14 -32,-3 -6,10 4,21 36,39 42,23 52,40 29,47 -5,1 -32,-11 -61,-27 z"
             id="path1738" />
          <path
             d="m 9065,1656 c -46,-20 -69,-51 -61,-81 6,-22 9,-24 26,-15 11,6 20,21 20,35 0,15 7,26 20,30 46,15 53,-25 15,-85 -24,-38 -34,-90 -17,-90 15,0 142,71 142,80 0,20 -20,19 -55,-1 -20,-12 -38,-19 -41,-17 -2,3 7,25 21,49 30,53 31,63 5,89 -23,23 -34,24 -75,6 z"
             id="path1740" />
          <path
             d="m 6265,938 c -21,-12 -35,-28 -35,-40 0,-15 48,-8 54,8 8,21 50,14 54,-8 2,-12 -6,-21 -22,-28 -30,-11 -35,-30 -7,-30 10,0 25,-7 32,-16 11,-14 10,-18 -6,-30 -24,-18 -30,-18 -49,1 -16,16 -56,21 -56,6 0,-14 27,-39 51,-46 61,-20 133,30 109,74 -6,12 -16,21 -22,21 -6,0 -3,9 6,19 45,50 -44,106 -109,69 z"
             id="path1742" />
          <path
             d="m 6462,940 c -30,-12 -45,-55 -39,-109 13,-117 167,-101 167,17 0,48 -12,72 -41,87 -32,17 -54,18 -87,5 z m 66,-32 c 19,-19 15,-105 -5,-117 -32,-18 -53,5 -53,57 0,47 12,72 35,72 6,0 16,-5 23,-12 z"
             id="path1744" />
          <text
             xml:space="preserve"
             style="font-style:normal;font-weight:normal;font-size:300px;line-height:1.25;font-family:sans-serif;fill:#000000;fill-opacity:1;stroke:none;stroke-width:7.5"
             x="5835.627"
             y="-10919.594"
             id="text2067"
             transform="scale(1,-1)"><tspan
               sodipodi:role="line"
               id="tspan2065"
               x="5835.627"
               y="-10919.594"
               style="font-style:normal;font-variant:normal;font-weight:normal;font-stretch:normal;font-size:1000px;font-family:'Franklin Gothic Demi Cond';-inkscape-font-specification:'Franklin Gothic Demi Cond, Normal';font-variant-ligatures:normal;font-variant-caps:normal;font-variant-numeric:normal;font-variant-east-asian:normal;stroke-width:7.5">12</tspan></text>
          <text
             xml:space="preserve"
             style="font-style:normal;font-weight:normal;font-size:300px;line-height:1.25;font-family:sans-serif;fill:#000000;fill-opacity:1;stroke:none;stroke-width:7.5"
             x="11085.409"
             y="-6140.5361"
             id="text2071"
             transform="scale(1,-1)"><tspan
               sodipodi:role="line"
               id="tspan2069"
               x="11085.409"
               y="-6140.5361"
               style="font-style:normal;font-variant:normal;font-weight:normal;font-stretch:normal;font-size:1000px;font-family:'Franklin Gothic Demi Cond';-inkscape-font-specification:'Franklin Gothic Demi Cond, Normal';font-variant-ligatures:normal;font-variant-caps:normal;font-variant-numeric:normal;font-variant-east-asian:normal;stroke-width:7.5">3</tspan></text>
          <text
             xml:space="preserve"
             style="font-style:normal;font-weight:normal;font-size:300px;line-height:1.25;font-family:sans-serif;fill:#000000;fill-opacity:1;stroke:none;stroke-width:7.5"
             x="1158.8478"
             y="-6140.5361"
             id="text2075"
             transform="scale(1,-1)"><tspan
               id="tspan2073"
               x="1158.8478"
               y="-6140.5361"
               style="font-style:normal;font-variant:normal;font-weight:normal;font-stretch:normal;font-size:1000px;font-family:'Franklin Gothic Demi Cond';-inkscape-font-specification:'Franklin Gothic Demi Cond, Normal';font-variant-ligatures:normal;font-variant-caps:normal;font-variant-numeric:normal;font-variant-east-asian:normal;stroke-width:7.5"
               sodipodi:role="line">9</tspan></text>
          <text
             xml:space="preserve"
             style="font-style:normal;font-weight:normal;font-size:300px;line-height:1.25;font-family:sans-serif;fill:#000000;fill-opacity:1;stroke:none;stroke-width:7.5"
             x="6108.0879"
             y="-1198.1692"
             id="text2079"
             transform="scale(1,-1)"><tspan
               sodipodi:role="line"
               id="tspan2077"
               x="6108.0879"
               y="-1198.1692"
               style="font-style:normal;font-variant:normal;font-weight:normal;font-stretch:normal;font-size:1000px;font-family:'Franklin Gothic Demi Cond';-inkscape-font-specification:'Franklin Gothic Demi Cond, Normal';font-variant-ligatures:normal;font-variant-caps:normal;font-variant-numeric:normal;font-variant-east-asian:normal;stroke-width:7.5">6</tspan></text>
        </g>
      </g>
    </g>
  </g>
</svg>
