<?xml version="1.0" encoding="UTF-8" standalone="no"?>
<svg
   xmlns:dc="http://purl.org/dc/elements/1.1/"
   xmlns:cc="http://creativecommons.org/ns#"
   xmlns:rdf="http://www.w3.org/1999/02/22-rdf-syntax-ns#"
   xmlns:svg="http://www.w3.org/2000/svg"
   xmlns="http://www.w3.org/2000/svg"
   xmlns:sodipodi="http://sodipodi.sourceforge.net/DTD/sodipodi-0.dtd"
   xmlns:inkscape="http://www.inkscape.org/namespaces/inkscape"
   width="632.32501"
   height="632.32501"
   viewBox="0 0 167.30266 167.30266"
   version="1.1"
   id="svg8"
   inkscape:version="1.0.2-2 (e86c870879, 2021-01-15)"
   sodipodi:docname="yy_bg_2.svg">
  <defs
     id="defs2" />
  <sodipodi:namedview
     id="base"
     pagecolor="#ffffff"
     bordercolor="#666666"
     borderopacity="1.0"
     inkscape:pageopacity="0.0"
     inkscape:pageshadow="2"
     inkscape:zoom="0.64"
     inkscape:cx="566.13838"
     inkscape:cy="355.61104"
     inkscape:document-units="mm"
     inkscape:current-layer="layer1"
     inkscape:document-rotation="0"
     showgrid="false"
     inkscape:window-width="1920"
     inkscape:window-height="1001"
     inkscape:window-x="-9"
     inkscape:window-y="-9"
     inkscape:window-maximized="1"
     units="px" />
  <metadata
     id="metadata5">
    <rdf:RDF>
      <cc:Work
         rdf:about="">
        <dc:format>image/svg+xml</dc:format>
        <dc:type
           rdf:resource="http://purl.org/dc/dcmitype/StillImage" />
        <dc:title></dc:title>
      </cc:Work>
    </rdf:RDF>
  </metadata>
  <g
     inkscape:label="Katman 1"
     inkscape:groupmode="layer"
     id="layer1">
    <polygon
       points=""
       id="polygon929"
       transform="matrix(0.33072916,0,0,0.33072916,-1931.7673,-810.19128)" />
    <polygon
       points=""
       id="polygon1548"
       style="fill:#a9a9a9;stroke:none"
       transform="matrix(0.33072916,0,0,0.33072916,-2457.9402,-474.80887)" />
    <g
       id="g853"
       transform="matrix(0.26624911,0,0,0.26458333,1823.3704,797.92007)" />
    <g
       id="g855"
       transform="matrix(0.26624911,0,0,0.26458333,1823.3704,797.92007)" />
    <g
       id="g857"
       transform="matrix(0.26624911,0,0,0.26458333,1823.3704,797.92007)" />
    <g
       id="g859"
       transform="matrix(0.26624911,0,0,0.26458333,1823.3704,797.92007)" />
    <g
       id="g861"
       transform="matrix(0.26624911,0,0,0.26458333,1823.3704,797.92007)" />
    <g
       id="g863"
       transform="matrix(0.26624911,0,0,0.26458333,1823.3704,797.92007)" />
    <g
       id="g865"
       transform="matrix(0.26624911,0,0,0.26458333,1823.3704,797.92007)" />
    <g
       id="g867"
       transform="matrix(0.26624911,0,0,0.26458333,1823.3704,797.92007)" />
    <g
       id="g869"
       transform="matrix(0.26624911,0,0,0.26458333,1823.3704,797.92007)" />
    <g
       id="g871"
       transform="matrix(0.26624911,0,0,0.26458333,1823.3704,797.92007)" />
    <g
       id="g873"
       transform="matrix(0.26624911,0,0,0.26458333,1823.3704,797.92007)" />
    <g
       id="g875"
       transform="matrix(0.26624911,0,0,0.26458333,1823.3704,797.92007)" />
    <g
       id="g877"
       transform="matrix(0.26624911,0,0,0.26458333,1823.3704,797.92007)" />
    <g
       id="g879"
       transform="matrix(0.26624911,0,0,0.26458333,1823.3704,797.92007)" />
    <g
       id="g881"
       transform="matrix(0.26624911,0,0,0.26458333,1823.3704,797.92007)" />
    <g
       id="g1143"
       transform="matrix(0.26458333,0,0,0.26458333,2151.8474,512.85636)" />
    <g
       id="g1145"
       transform="matrix(0.26458333,0,0,0.26458333,2151.8474,512.85636)" />
    <g
       id="g1147"
       transform="matrix(0.26458333,0,0,0.26458333,2151.8474,512.85636)" />
    <g
       id="g1149"
       transform="matrix(0.26458333,0,0,0.26458333,2151.8474,512.85636)" />
    <g
       id="g1151"
       transform="matrix(0.26458333,0,0,0.26458333,2151.8474,512.85636)" />
    <g
       id="g1153"
       transform="matrix(0.26458333,0,0,0.26458333,2151.8474,512.85636)" />
    <g
       id="g1155"
       transform="matrix(0.26458333,0,0,0.26458333,2151.8474,512.85636)" />
    <g
       id="g1157"
       transform="matrix(0.26458333,0,0,0.26458333,2151.8474,512.85636)" />
    <g
       id="g1159"
       transform="matrix(0.26458333,0,0,0.26458333,2151.8474,512.85636)" />
    <g
       id="g1161"
       transform="matrix(0.26458333,0,0,0.26458333,2151.8474,512.85636)" />
    <g
       id="g1163"
       transform="matrix(0.26458333,0,0,0.26458333,2151.8474,512.85636)" />
    <g
       id="g1165"
       transform="matrix(0.26458333,0,0,0.26458333,2151.8474,512.85636)" />
    <g
       id="g1167"
       transform="matrix(0.26458333,0,0,0.26458333,2151.8474,512.85636)" />
    <g
       id="g1169"
       transform="matrix(0.26458333,0,0,0.26458333,2151.8474,512.85636)" />
    <g
       id="g1171"
       transform="matrix(0.26458333,0,0,0.26458333,2151.8474,512.85636)" />
    <g
       id="g1758"
       style="fill:#a9a9a9;stroke:none"
       transform="matrix(0.26458333,0,0,0.26458333,1625.6745,848.23872)" />
    <g
       id="g1760"
       style="fill:#a9a9a9;stroke:none"
       transform="matrix(0.26458333,0,0,0.26458333,1625.6745,848.23872)" />
    <g
       id="g1762"
       style="fill:#a9a9a9;stroke:none"
       transform="matrix(0.26458333,0,0,0.26458333,1625.6745,848.23872)" />
    <g
       id="g1764"
       style="fill:#a9a9a9;stroke:none"
       transform="matrix(0.26458333,0,0,0.26458333,1625.6745,848.23872)" />
    <g
       id="g1766"
       style="fill:#a9a9a9;stroke:none"
       transform="matrix(0.26458333,0,0,0.26458333,1625.6745,848.23872)" />
    <g
       id="g1768"
       style="fill:#a9a9a9;stroke:none"
       transform="matrix(0.26458333,0,0,0.26458333,1625.6745,848.23872)" />
    <g
       id="g1770"
       style="fill:#a9a9a9;stroke:none"
       transform="matrix(0.26458333,0,0,0.26458333,1625.6745,848.23872)" />
    <g
       id="g1772"
       style="fill:#a9a9a9;stroke:none"
       transform="matrix(0.26458333,0,0,0.26458333,1625.6745,848.23872)" />
    <g
       id="g1774"
       style="fill:#a9a9a9;stroke:none"
       transform="matrix(0.26458333,0,0,0.26458333,1625.6745,848.23872)" />
    <g
       id="g1776"
       style="fill:#a9a9a9;stroke:none"
       transform="matrix(0.26458333,0,0,0.26458333,1625.6745,848.23872)" />
    <g
       id="g1778"
       style="fill:#a9a9a9;stroke:none"
       transform="matrix(0.26458333,0,0,0.26458333,1625.6745,848.23872)" />
    <g
       id="g1780"
       style="fill:#a9a9a9;stroke:none"
       transform="matrix(0.26458333,0,0,0.26458333,1625.6745,848.23872)" />
    <g
       id="g1782"
       style="fill:#a9a9a9;stroke:none"
       transform="matrix(0.26458333,0,0,0.26458333,1625.6745,848.23872)" />
    <g
       id="g1784"
       style="fill:#a9a9a9;stroke:none"
       transform="matrix(0.26458333,0,0,0.26458333,1625.6745,848.23872)" />
    <g
       id="g1786"
       style="fill:#a9a9a9;stroke:none"
       transform="matrix(0.26458333,0,0,0.26458333,1625.6745,848.23872)" />
    <circle
       style="font-variation-settings:'wdth' 75, 'wght' 400;fill:#30110d;fill-opacity:1;stroke:none;stroke-width:5.32052;stroke-linecap:round;stroke-linejoin:round;stroke-miterlimit:4;stroke-dasharray:none"
       id="circle3848"
       cx="83.651321"
       cy="83.651321"
       inkscape:transform-center-x="223.08161"
       inkscape:transform-center-y="-52.953716"
       r="83.651321" />
  </g>
</svg>
