<?xml version="1.0" encoding="UTF-8" standalone="no"?>
<svg
   xmlns:dc="http://purl.org/dc/elements/1.1/"
   xmlns:cc="http://creativecommons.org/ns#"
   xmlns:rdf="http://www.w3.org/1999/02/22-rdf-syntax-ns#"
   xmlns:svg="http://www.w3.org/2000/svg"
   xmlns="http://www.w3.org/2000/svg"
   xmlns:sodipodi="http://sodipodi.sourceforge.net/DTD/sodipodi-0.dtd"
   xmlns:inkscape="http://www.inkscape.org/namespaces/inkscape"
   width="600"
   height="600"
   viewBox="0 0 158.75 158.75"
   version="1.1"
   id="svg8"
   inkscape:version="1.0.2-2 (e86c870879, 2021-01-15)"
   sodipodi:docname="bg_roman_alt.svg">
  <defs
     id="defs2" />
  <sodipodi:namedview
     id="base"
     pagecolor="#ffffff"
     bordercolor="#666666"
     borderopacity="1.0"
     inkscape:pageopacity="0.0"
     inkscape:pageshadow="2"
     inkscape:zoom="0.12374369"
     inkscape:cx="-2914.57"
     inkscape:cy="-357.49187"
     inkscape:document-units="mm"
     inkscape:current-layer="g999"
     inkscape:document-rotation="0"
     showgrid="false"
     inkscape:snap-global="false"
     inkscape:window-width="1920"
     inkscape:window-height="1001"
     inkscape:window-x="-9"
     inkscape:window-y="-9"
     inkscape:window-maximized="1"
     units="px" />
  <metadata
     id="metadata5">
    <rdf:RDF>
      <cc:Work
         rdf:about="">
        <dc:format>image/svg+xml</dc:format>
        <dc:type
           rdf:resource="http://purl.org/dc/dcmitype/StillImage" />
        <dc:title></dc:title>
      </cc:Work>
    </rdf:RDF>
  </metadata>
  <g
     inkscape:label="Katman 1"
     inkscape:groupmode="layer"
     id="layer1">
    <g
       transform="matrix(0.03527778,0,0,-0.03527778,-106.29451,331.42028)"
       fill="#000000"
       stroke="none"
       id="g999">
      <g
         id="g1662"
         transform="matrix(0.35160919,0,0,0.35166489,3012.8743,4894.3436)"
         style="fill:#000000;stroke:none">
        <path
           d="m 6095,12794 c -27,-2 -115,-8 -195,-14 C 4743,12695 3604,12277 2651,11586 2088,11179 1590,10677 1185,10109 281,8842 -128,7281 36,5730 175,4412 708,3193 1584,2185 1715,2035 2017,1733 2178,1592 3622,325 5539,-224 7440,85 c 1055,172 2059,614 2912,1282 370,290 751,669 1055,1048 1775,2220 1861,5379 208,7694 -889,1245 -2188,2133 -3660,2500 -327,82 -625,132 -990,167 -150,14 -756,27 -870,18 z m 225,-548 v -204 l -72,-6 c -192,-14 -421,-27 -424,-24 -4,5 -46,400 -42,403 3,3 256,19 506,33 l 32,2 z m 510,183 c 96,-6 178,-14 181,-17 5,-6 -29,-393 -36,-400 -2,-3 -236,11 -422,24 l -73,6 v 204 205 l 88,-6 c 48,-3 166,-10 262,-16 z m -1054,-219 c 11,-107 18,-198 15,-201 -3,-3 -67,-14 -141,-23 -74,-9 -195,-28 -269,-42 -74,-14 -137,-21 -141,-17 -10,12 -84,382 -78,388 8,9 240,51 378,70 69,9 132,18 140,20 8,2 29,2 45,2 l 30,-2 z m 1519,170 c 144,-21 335,-57 342,-64 5,-5 -72,-384 -80,-392 -2,-2 -65,7 -138,20 -74,14 -195,33 -269,42 -74,9 -138,20 -141,23 -4,3 1,87 12,186 10,99 18,188 18,199 1,21 22,20 256,-14 z m -2160,-92 c 16,-70 75,-355 75,-364 0,-6 -69,-28 -152,-49 -84,-20 -206,-53 -271,-73 -64,-19 -119,-33 -120,-31 -1,2 -29,85 -61,184 -32,99 -61,185 -63,191 -4,12 160,63 402,125 179,45 183,45 190,17 z m 2735,-22 c 192,-49 367,-100 377,-110 7,-6 -104,-365 -117,-379 -4,-4 -58,7 -121,26 -63,19 -183,52 -266,73 -89,21 -153,42 -153,49 0,15 68,355 75,373 6,18 13,16 205,-32 z m -3291,-307 c 34,-102 61,-190 61,-195 0,-5 -33,-20 -73,-32 -39,-13 -157,-58 -261,-99 -103,-41 -190,-73 -191,-71 -3,3 -99,218 -146,325 l -18,42 47,22 c 107,48 513,201 518,195 1,0 29,-85 63,-187 z m 4036,68 c 77,-30 161,-65 186,-76 l 47,-21 -80,-177 c -44,-98 -82,-181 -86,-185 -4,-4 -88,26 -187,65 -99,40 -215,83 -258,97 -42,14 -77,30 -77,35 0,8 100,332 115,372 5,14 115,-22 340,-110 z m -1785,-18 c 553,-40 1136,-175 1675,-390 189,-75 580,-268 750,-370 429,-256 768,-521 1121,-873 442,-442 766,-889 1043,-1436 547,-1079 729,-2287 526,-3494 C 11647,3674 10484,2129 8855,1339 7905,879 6865,696 5812,805 3915,1002 2234,2162 1376,3870 468,5675 594,7815 1706,9501 c 207,315 432,588 718,875 456,455 901,776 1476,1062 727,363 1457,547 2320,586 112,5 445,-3 610,-15 z m -2820,-274 c 46,-102 81,-187 79,-189 -2,-2 -60,-31 -129,-64 -69,-32 -167,-82 -218,-110 l -92,-50 -48,81 c -158,268 -158,268 -136,284 16,12 451,233 459,233 1,0 40,-83 85,-185 z m 5121,59 c 102,-52 193,-100 203,-107 17,-13 12,-25 -79,-183 -54,-93 -99,-171 -101,-173 -5,-6 -443,213 -444,221 0,4 28,69 61,145 34,76 70,157 80,180 l 18,42 38,-15 c 21,-9 122,-58 224,-110 z m -5753,-320 c 35,-60 79,-137 98,-171 l 35,-61 -108,-67 c -59,-37 -152,-99 -207,-137 -54,-38 -102,-66 -106,-61 -21,23 -230,314 -230,321 1,16 427,295 444,289 6,-2 39,-53 74,-113 z m 6248,40 c 96,-61 296,-196 313,-210 3,-3 -204,-297 -229,-327 -4,-5 -52,23 -106,61 -55,38 -148,100 -207,137 -59,37 -107,71 -105,76 12,35 195,339 204,339 6,0 65,-34 130,-76 z m -6672,-394 c 64,-88 116,-162 116,-164 0,-3 -39,-35 -87,-73 -112,-86 -305,-247 -322,-267 -8,-9 -17,-16 -21,-16 -10,0 -270,290 -270,301 0,16 441,379 461,379 4,0 59,-72 123,-160 z m 7151,58 c 140,-109 325,-266 325,-275 0,-4 -185,-216 -251,-287 -17,-19 -19,-17 -91,45 -91,81 -159,136 -270,222 -49,38 -88,71 -88,74 0,13 226,322 235,322 6,1 69,-45 140,-101 z m -7633,-435 c 68,-76 127,-144 131,-150 5,-8 -62,-83 -190,-211 l -198,-199 -144,131 c -80,73 -146,137 -148,142 -4,11 402,424 417,424 4,0 63,-62 132,-137 z m 8202,-69 c 113,-114 206,-210 206,-213 0,-7 -264,-251 -287,-264 -9,-6 -72,51 -211,190 l -198,198 131,147 c 71,81 135,148 141,148 7,0 104,-93 218,-206 z m -8629,-370 c 77,-69 144,-129 149,-134 4,-5 -22,-43 -58,-84 -81,-93 -267,-326 -273,-343 -3,-7 -10,-13 -15,-13 -11,0 -315,218 -324,231 -10,17 351,469 374,469 4,0 70,-57 147,-126 z m 8963,11 c 51,-61 134,-163 184,-228 75,-99 88,-121 77,-131 -31,-28 -309,-226 -318,-226 -5,0 -11,6 -14,13 -6,17 -192,250 -273,343 l -67,77 89,81 c 49,44 114,104 144,133 30,29 62,52 70,50 8,-1 56,-52 108,-112 z M 1659,9828 c 86,-61 160,-114 164,-118 5,-4 -23,-52 -60,-106 -38,-55 -100,-147 -137,-206 -38,-60 -70,-108 -72,-108 -4,0 -335,190 -343,196 -2,2 1,16 8,31 15,33 273,423 280,423 2,0 74,-50 160,-112 z m 9778,-85 c 147,-223 158,-242 146,-253 -4,-5 -80,-50 -168,-100 -88,-51 -163,-94 -166,-96 -4,-2 -38,44 -75,104 -37,59 -99,151 -137,206 -37,54 -66,101 -63,104 20,19 313,231 321,231 6,1 70,-88 142,-196 z M 1298,9254 c 92,-53 170,-98 174,-100 3,-2 -22,-57 -57,-121 -35,-65 -85,-164 -111,-220 -26,-57 -50,-103 -54,-103 -10,0 -353,151 -362,159 -12,10 222,481 239,481 2,0 79,-43 171,-96 z m 10500,-132 c 62,-123 112,-230 110,-239 -2,-12 -280,-146 -347,-168 -14,-4 -27,15 -65,97 -26,57 -76,157 -112,223 -36,66 -61,121 -57,123 4,1 80,45 168,97 88,51 167,93 175,92 9,-1 62,-96 128,-225 z M 1238,8684 c 2,-1 -30,-87 -71,-191 -41,-103 -85,-221 -98,-260 -13,-40 -29,-73 -35,-73 -6,0 -95,27 -197,60 l -186,60 45,128 c 45,127 115,306 154,394 l 20,46 183,-81 c 100,-44 184,-82 185,-83 z m 10738,57 c 53,-124 164,-425 164,-445 0,-10 -60,-34 -183,-75 -100,-34 -187,-61 -192,-61 -6,0 -21,33 -34,73 -13,39 -57,157 -98,262 -41,104 -71,191 -66,193 4,1 85,38 178,82 94,43 174,77 178,76 5,-1 29,-48 53,-105 z m 222,-623 c 56,-191 119,-448 110,-448 -2,0 -87,-18 -188,-40 -101,-22 -190,-40 -196,-40 -6,0 -27,66 -48,150 -20,82 -53,202 -72,266 -19,64 -32,119 -29,123 5,5 359,128 376,130 3,1 25,-63 47,-141 z M 839,8194 c 97,-31 180,-60 184,-64 5,-4 -8,-61 -28,-126 -20,-66 -52,-186 -72,-269 -20,-82 -37,-151 -37,-151 -2,-4 -385,82 -391,88 -17,16 135,578 157,578 6,0 90,-25 187,-56 z m 11500,-656 c 31,-161 74,-466 68,-482 -4,-10 -239,-41 -386,-50 -11,-1 -19,30 -32,133 -10,73 -30,197 -44,274 -14,77 -22,143 -18,147 4,3 89,23 188,44 99,21 182,40 184,42 14,13 21,-7 40,-108 z M 688,7600 c 102,-22 187,-42 189,-44 2,-2 -8,-66 -22,-142 -14,-76 -33,-197 -42,-268 -9,-72 -19,-134 -22,-138 -6,-6 -392,30 -400,38 -8,8 50,405 79,542 7,28 16,52 22,52 5,0 93,-18 196,-40 z m -78,-606 c 96,-9 177,-18 179,-20 2,-1 -2,-62 -8,-135 -6,-72 -11,-162 -11,-199 0,-37 -3,-88 -6,-114 l -7,-46 H 555 352 l 4,88 c 9,192 26,437 30,444 3,5 15,6 27,3 12,-2 101,-12 197,-21 z m 11810,0 c 0,-14 4,-89 9,-167 6,-78 12,-188 15,-244 l 5,-103 h -203 -203 l -7,46 c -3,26 -6,77 -6,114 0,37 -5,127 -11,199 -6,73 -10,134 -8,136 4,3 334,42 382,44 23,1 27,-3 27,-25 z M 764,6274 c 3,-26 6,-77 6,-114 0,-37 5,-127 11,-199 6,-73 10,-134 8,-136 -5,-4 -400,-47 -404,-43 -3,3 -21,282 -29,451 l -4,87 h 203 202 z m 11681,-41 c -17,-296 -27,-439 -33,-444 -4,-3 -96,3 -206,14 l -199,21 7,65 c 3,37 8,120 11,186 3,66 8,148 11,183 l 6,62 h 204 204 z M 812,5660 c 9,-73 29,-196 43,-273 14,-77 22,-143 18,-147 -12,-10 -382,-84 -389,-78 -15,15 -100,555 -91,581 2,8 70,19 193,33 104,12 193,21 199,19 5,-1 17,-61 27,-135 z m 11428,114 c 91,-9 167,-18 169,-20 10,-10 -78,-577 -93,-591 -4,-5 -386,74 -393,81 -2,2 8,64 21,139 14,75 33,194 42,264 20,163 17,155 56,149 18,-3 107,-13 198,-22 z M 925,5058 c 21,-84 53,-204 72,-267 19,-62 31,-117 26,-121 -10,-10 -349,-120 -368,-120 -9,0 -23,31 -39,83 -39,125 -129,487 -123,494 7,6 342,80 373,82 20,1 25,-13 59,-151 z m 11163,122 c 75,-16 154,-32 175,-36 21,-3 41,-12 43,-18 8,-21 -132,-555 -150,-573 -6,-6 -366,106 -379,117 -5,4 7,59 26,121 19,63 51,183 72,267 32,131 40,152 57,152 11,0 81,-13 156,-30 z m -118,-601 c 91,-28 168,-54 172,-58 13,-12 -197,-561 -216,-561 -11,0 -349,149 -359,159 -4,4 17,65 47,137 29,71 72,183 95,249 23,66 44,126 46,132 3,9 11,10 27,3 13,-5 97,-32 188,-61 z M 1069,4567 c 13,-39 57,-157 98,-260 41,-104 73,-190 71,-191 -10,-7 -345,-155 -356,-158 -16,-4 -68,115 -163,372 -46,126 -64,186 -56,190 54,20 355,118 367,119 10,1 23,-23 39,-72 z m 253,-614 c 37,-76 87,-175 112,-220 l 45,-83 -92,-53 c -265,-155 -258,-152 -274,-131 -19,25 -234,456 -230,461 7,6 353,162 362,162 6,1 41,-61 77,-136 z m 10412,61 c 94,-42 174,-79 179,-83 7,-7 -195,-424 -225,-464 -13,-18 -24,-13 -190,83 l -176,101 45,82 c 24,45 74,144 111,220 36,75 70,137 75,137 5,0 86,-34 181,-76 z M 1692,3305 c 73,-110 133,-203 133,-207 0,-8 -312,-238 -323,-238 -4,0 -62,82 -128,183 -159,240 -169,256 -157,268 16,16 327,197 335,195 4,0 67,-91 140,-201 z m 9726,109 c 92,-53 169,-99 172,-101 7,-7 -33,-73 -159,-263 -64,-96 -119,-179 -123,-184 -4,-6 -227,145 -335,228 -3,2 271,416 275,416 2,0 79,-43 170,-96 z m -261,-482 c 67,-48 122,-91 123,-95 0,-18 -341,-444 -371,-462 -8,-5 -82,57 -298,251 -11,10 -2,25 51,86 74,85 207,250 257,320 l 34,48 41,-31 c 23,-17 96,-69 163,-117 z m -9272,95 c 44,-62 178,-230 253,-315 l 65,-74 -24,-23 c -77,-74 -272,-245 -279,-245 -19,0 -375,438 -375,461 0,11 305,238 320,238 6,0 23,-18 40,-42 z m 8938,-622 c 31,-29 57,-56 57,-62 0,-14 -407,-418 -421,-418 -6,0 -71,65 -143,145 l -133,145 201,201 201,201 90,-80 c 49,-44 116,-104 148,-132 z m -8403,8 197,-198 -131,-145 c -72,-80 -136,-145 -144,-145 -13,0 -422,403 -422,416 0,8 288,269 296,269 3,0 95,-89 204,-197 z m 296,-278 c 71,-63 296,-243 342,-275 21,-15 20,-17 -96,-177 -64,-89 -121,-162 -125,-162 -23,-2 -462,356 -462,376 0,9 255,303 263,303 2,0 37,-29 78,-65 z m 7584,-84 c 71,-80 130,-148 130,-152 0,-15 -427,-365 -459,-377 -10,-3 -241,310 -241,326 0,5 6,12 13,15 18,7 300,233 362,290 28,25 53,45 57,44 5,-1 66,-67 138,-146 z M 3300,1696 c 107,-71 199,-132 203,-136 6,-5 -163,-315 -190,-350 -7,-8 -75,33 -263,158 -102,68 -187,125 -188,127 -5,5 232,335 238,332 3,-1 93,-60 200,-131 z m 6524,-30 c 64,-87 116,-161 116,-165 0,-6 -324,-223 -404,-271 -38,-23 -39,-23 -53,-4 -18,24 -182,309 -185,322 -3,10 390,280 404,278 4,-1 59,-72 122,-160 z M 3953,1323 c 75,-37 137,-70 137,-75 0,-10 -150,-351 -159,-361 -7,-7 -427,197 -465,226 -19,14 -17,18 43,123 35,60 81,139 102,176 l 39,67 83,-45 c 45,-25 144,-75 220,-111 z m 5303,-24 c 92,-161 97,-172 80,-185 -24,-17 -332,-174 -408,-207 l -56,-25 -83,184 c -45,102 -80,186 -78,188 2,2 90,46 196,98 105,53 202,103 214,111 12,9 26,14 30,12 4,-3 51,-82 105,-176 z M 4293,1172 c 88,-35 202,-79 255,-97 54,-19 96,-37 96,-42 -2,-8 -110,-346 -119,-370 -3,-9 -35,-2 -117,27 -191,68 -448,174 -448,185 0,10 142,333 156,357 3,5 9,8 12,6 4,-2 78,-32 165,-66 z m 4470,-109 c 43,-98 79,-182 79,-187 0,-16 -507,-216 -547,-216 -9,0 -34,63 -74,183 -34,100 -61,187 -61,192 0,6 39,23 88,39 48,16 161,59 252,96 91,37 170,68 175,69 6,0 45,-79 88,-176 z m -3984,-62 c 79,-25 280,-77 404,-105 16,-4 27,-13 27,-23 0,-28 -73,-368 -81,-377 -14,-16 -579,135 -579,154 0,18 121,380 127,380 3,0 49,-13 102,-29 z M 8194,845 c 33,-101 60,-188 60,-192 1,-4 -37,-20 -84,-36 -109,-35 -490,-131 -496,-124 -7,7 -87,388 -82,393 3,2 85,24 184,49 98,24 213,55 254,69 41,13 82,24 90,25 11,0 31,-50 74,-184 z m -2716,-5 c 95,-16 207,-32 248,-36 l 76,-7 -6,-41 c -3,-23 -13,-113 -22,-201 -9,-88 -18,-162 -19,-164 -10,-10 -578,79 -592,93 -5,4 25,156 64,330 l 15,68 32,-7 c 17,-3 109,-19 204,-35 z M 7602,700 c 20,-96 37,-185 38,-197 0,-18 -8,-23 -52,-32 -221,-44 -527,-87 -538,-74 -13,15 -47,395 -36,398 6,2 83,13 171,25 88,12 201,30 250,40 50,10 99,17 110,17 17,-2 24,-25 57,-177 z m -1462,70 c 96,-5 176,-10 178,-10 1,0 2,-92 2,-205 V 351 l -87,5 c -277,15 -439,27 -444,32 -4,4 3,96 14,206 l 21,198 71,-6 c 38,-3 149,-11 245,-16 z m 840,13 c 0,-5 9,-91 20,-193 11,-102 20,-190 20,-196 0,-10 -46,-14 -462,-39 l -78,-4 v 203 204 l 73,6 c 99,8 333,22 385,24 23,1 42,-1 42,-5 z"
           id="path1577" />
        <path
           d="m 5780,11805 c 0,-10 10,-15 30,-15 24,0 30,-5 38,-32 5,-18 69,-274 141,-568 l 133,-535 -94,-395 -94,-395 -57,-3 c -42,-2 -57,-7 -57,-17 0,-12 22,-15 120,-15 98,0 120,3 120,15 0,10 -15,15 -53,17 l -54,3 87,363 c 48,199 89,365 92,367 3,3 45,-156 93,-352 49,-197 90,-364 93,-370 3,-9 -6,-13 -27,-13 -21,0 -31,-5 -31,-15 0,-13 18,-15 122,-13 82,2 123,7 125,15 3,7 -9,13 -28,15 l -33,3 -123,490 c -67,270 -123,500 -123,512 0,12 38,183 85,380 47,197 95,400 107,451 l 22,92 h 88 88 v -965 -965 h -30 c -20,0 -30,-5 -30,-15 0,-13 34,-15 245,-15 211,0 245,2 245,15 0,10 -10,15 -30,15 h -30 v 965 965 h 30 c 20,0 30,5 30,15 0,13 -48,15 -370,15 -322,0 -370,-2 -370,-15 0,-12 13,-15 56,-15 53,0 56,-1 51,-22 -6,-24 -185,-771 -197,-823 l -7,-30 -11,40 c -6,22 -56,219 -110,437 l -99,397 30,3 c 17,2 32,9 35,16 3,9 -26,12 -122,12 -105,0 -126,-2 -126,-15 z m 1060,-980 v -965 h -65 -65 v 965 965 h 65 65 z"
           id="path1579" />
        <path
           d="m 3915,11224 c -110,-64 -204,-119 -209,-124 -4,-5 -5,-13 -2,-19 5,-7 21,-2 46,14 22,14 43,25 48,25 6,0 118,-363 247,-805 14,-50 13,-48 -270,240 -157,160 -298,305 -313,324 l -27,34 23,15 c 24,16 29,32 9,32 -10,0 -192,-102 -206,-115 -1,-2 0,-8 4,-14 4,-8 15,-6 33,3 l 28,14 404,-419 405,-420 118,-392 c 90,-301 115,-394 105,-400 -7,-4 -30,-18 -50,-30 -24,-14 -35,-26 -30,-34 5,-9 38,5 110,48 93,54 121,79 91,79 -6,0 -29,-10 -50,-22 -21,-12 -40,-20 -42,-17 -2,2 -50,162 -107,354 -56,193 -105,357 -108,365 -5,13 77,-69 448,-453 l 85,-88 -24,-18 c -13,-10 -21,-23 -17,-29 6,-10 53,15 205,107 8,5 11,14 6,20 -5,9 -13,8 -32,-5 -25,-16 -26,-15 -53,12 -15,16 -177,183 -360,372 l -333,343 -124,412 c -68,227 -130,433 -137,458 l -14,46 74,43 c 43,25 79,39 84,34 4,-5 222,-380 484,-834 l 476,-825 -25,-15 c -27,-16 -35,-46 -10,-36 8,3 58,31 111,62 63,37 92,60 86,66 -6,6 -18,6 -32,-2 -12,-7 -26,-8 -30,-3 -5,4 -216,368 -470,808 -254,440 -468,811 -477,824 -16,25 -16,25 27,51 10,6 12,12 5,19 -7,7 -75,-27 -210,-105 z"
           id="path1597" />
        <path
           d="m 8984,11149 c -4,-7 -3,-14 3,-16 6,-2 18,-9 27,-16 16,-11 -29,-93 -452,-827 -259,-448 -476,-824 -484,-834 -13,-18 -15,-18 -40,-2 -22,14 -26,15 -31,2 -8,-19 199,-141 210,-124 3,7 -3,18 -15,26 -12,8 -22,19 -22,23 0,5 214,381 476,835 366,633 481,824 493,821 9,-3 24,-8 34,-12 11,-5 17,-3 17,6 0,8 -44,39 -97,69 -118,67 -110,64 -119,49 z"
           id="path1599" />
        <path
           d="m 1836,9334 c -62,-105 -67,-119 -48,-119 7,0 23,18 35,39 12,21 26,39 30,38 8,-1 647,-602 647,-608 0,-1 -15,2 -32,7 -18,5 -208,59 -423,120 -214,61 -394,115 -398,119 -5,4 -3,17 4,29 10,15 10,24 2,32 -8,8 -27,-19 -72,-97 -46,-80 -59,-109 -49,-115 8,-5 17,0 26,17 10,19 19,24 35,20 12,-3 265,-75 561,-160 398,-115 546,-161 565,-178 47,-43 571,-540 571,-543 0,-1 -12,-24 -26,-49 -18,-32 -23,-51 -17,-57 7,-7 31,26 73,96 43,74 59,110 52,117 -8,8 -19,-3 -39,-36 -15,-25 -31,-45 -35,-44 -12,5 -548,518 -541,518 12,0 717,-202 723,-207 2,-2 -2,-13 -9,-25 -9,-14 -10,-23 -2,-31 6,-6 12,-9 14,-6 12,13 117,202 117,210 0,18 -29,9 -35,-11 -3,-11 -13,-20 -20,-20 -8,0 -235,63 -505,139 l -491,139 -187,179 c -103,98 -258,245 -344,327 l -158,148 25,42 c 14,24 25,48 25,54 0,30 -23,4 -74,-84 z"
           id="path1601" />
        <path
           d="m 10957,9304 c -3,-3 1,-17 10,-30 9,-14 13,-27 10,-31 -4,-3 -379,-221 -834,-484 l -828,-478 -15,25 c -14,22 -40,33 -40,16 0,-16 238,-416 250,-420 13,-5 11,11 -4,48 -5,12 188,127 826,496 l 833,481 15,-24 c 14,-22 40,-32 40,-15 0,13 -237,416 -247,419 -5,2 -12,1 -16,-3 z m 120,-218 31,-54 -835,-483 c -656,-378 -837,-479 -845,-468 -29,44 -49,92 -40,101 9,9 1643,956 1652,957 3,0 19,-24 37,-53 z"
           id="path1603" />
        <path
           d="m 980,6775 c 0,-97 3,-126 13,-123 7,3 13,26 15,56 2,29 5,52 7,52 2,0 91,-21 197,-46 482,-115 595,-142 626,-149 18,-4 31,-9 29,-12 -3,-3 -197,-53 -431,-113 l -425,-108 -3,31 c -5,52 -25,43 -30,-14 -9,-94 4,-450 16,-446 6,2 12,18 14,35 l 3,32 h 959 959 l 3,-32 c 2,-17 9,-33 16,-36 9,-3 12,26 12,123 0,97 -3,126 -12,123 -7,-3 -14,-17 -16,-31 l -3,-27 h -960 -959 v 60 59 l 38,10 c 20,6 274,69 564,142 l 528,131 397,-94 398,-95 3,-56 c 2,-42 7,-57 17,-57 12,0 15,22 15,120 0,100 -2,120 -15,120 -11,0 -15,-12 -15,-50 0,-43 -3,-50 -19,-50 -11,0 -129,27 -263,59 -133,32 -286,69 -338,81 -52,13 -101,26 -109,30 -10,5 694,190 724,190 3,0 5,-13 5,-30 0,-20 5,-30 15,-30 13,0 15,18 13,122 -2,82 -7,123 -15,125 -7,3 -13,-9 -15,-28 l -3,-32 -490,-123 c -269,-68 -500,-124 -513,-124 -12,0 -172,36 -355,79 -182,43 -385,91 -449,106 l -117,28 -3,55 c -2,33 -8,57 -15,60 -10,3 -13,-26 -13,-123 z"
           id="path1605" />
        <path
           d="m 9833,6403 c 1,-282 5,-367 15,-371 8,-2 12,7 12,27 v 31 h 965 965 v -30 c 0,-20 5,-30 15,-30 13,0 15,48 15,370 0,322 -2,370 -15,370 -10,0 -15,-10 -15,-30 v -30 h -965 -965 v 30 c 0,20 -5,30 -15,30 -13,0 -14,-48 -12,-367 z m 1957,122 v -65 h -965 -965 v 58 c 0,32 3,62 7,65 3,4 438,7 965,7 h 958 z m 0,-250 v -65 l -962,2 -963,3 -3,63 -3,62 h 966 965 z"
           id="path1607" />
        <path
           d="m 9582,5043 c -270,-465 -452,-783 -452,-788 0,-14 31,-3 40,15 6,11 14,20 19,20 7,0 1650,-946 1660,-956 3,-3 0,-14 -7,-24 -7,-11 -12,-24 -12,-30 0,-42 55,44 267,413 175,303 240,424 232,432 -8,7 -13,7 -16,-1 -2,-6 -9,-19 -16,-29 -12,-15 -88,26 -833,456 -450,259 -825,478 -832,484 -11,10 -11,17 -2,35 8,15 8,26 2,32 -7,7 -23,-13 -50,-59 z m 803,-583 c 451,-260 824,-476 829,-481 9,-8 -42,-109 -55,-109 -7,0 -1577,903 -1646,946 l -22,14 32,54 c 18,30 34,53 37,51 3,-1 374,-215 825,-475 z m -138,-206 c 445,-256 818,-472 831,-481 l 23,-14 -30,-52 c -17,-29 -35,-51 -40,-50 -11,3 -1642,943 -1654,953 -5,5 -2,20 7,34 9,14 23,37 31,51 9,14 18,25 20,25 3,0 368,-210 812,-466 z m -89,-233 820,-474 -29,-51 c -16,-28 -33,-51 -39,-51 -18,0 -1659,950 -1660,961 0,5 14,31 30,57 21,34 34,46 43,40 8,-4 383,-221 835,-482 z"
           id="path1609" />
        <path
           d="m 3060,5030 c -125,-38 -198,-60 -775,-230 -170,-50 -461,-136 -645,-191 -184,-55 -342,-102 -351,-105 -13,-3 -21,8 -35,46 -10,27 -24,50 -31,50 -7,0 -13,-4 -13,-9 0,-21 79,-216 89,-219 15,-5 14,22 -4,65 -8,20 -14,38 -12,40 2,1 118,37 258,79 140,41 403,120 584,174 182,54 454,135 605,180 151,45 288,85 304,91 16,5 30,8 32,6 3,-3 -1326,-1291 -1337,-1295 -4,-2 -10,6 -14,17 -6,21 -35,30 -35,12 0,-5 15,-35 33,-68 56,-98 449,-778 453,-782 1,-1 7,0 13,4 8,4 6,15 -4,35 l -15,28 698,403 c 383,221 758,437 832,481 l 135,78 20,-25 c 23,-27 35,-32 35,-12 0,6 -81,152 -179,322 -159,275 -202,339 -193,289 1,-8 3,-21 5,-30 1,-11 -241,-155 -828,-494 -456,-264 -832,-476 -836,-472 -3,4 -18,28 -32,53 l -26,46 167,164 c 92,91 418,407 725,703 307,296 556,541 555,545 -2,3 -10,18 -17,34 -8,15 -19,27 -25,26 -6,0 -67,-18 -136,-39 z m 555,-734 c 16,-30 27,-57 25,-59 -8,-8 -1636,-946 -1651,-952 -15,-6 -73,79 -66,98 2,8 1640,962 1657,966 3,1 19,-23 35,-53 z m 125,-217 c 17,-28 30,-52 28,-54 -2,-1 -367,-213 -813,-470 -445,-257 -820,-473 -832,-481 -21,-13 -24,-12 -53,38 -16,29 -30,55 -30,58 0,3 69,44 153,92 83,48 456,263 827,477 371,215 678,391 682,391 3,0 20,-23 38,-51 z"
           id="path1611" />
        <path
           d="m 3863,3023 c -296,-313 -608,-641 -692,-731 l -154,-162 -43,35 c -28,23 -45,31 -50,24 -3,-6 2,-19 12,-28 11,-10 49,-46 87,-81 48,-45 71,-60 78,-53 8,8 -1,22 -30,49 l -40,39 642,677 c 353,372 642,676 643,675 3,-2 -507,-1790 -511,-1795 -2,-2 -12,2 -24,10 -14,9 -24,9 -31,2 -7,-7 85,-65 302,-190 171,-98 318,-180 325,-182 24,-6 13,25 -13,37 l -25,11 19,33 c 11,17 228,392 482,832 254,440 463,801 465,804 3,2 16,-4 29,-13 17,-11 27,-12 32,-5 3,6 2,14 -2,19 -13,11 -396,231 -407,233 -22,4 -16,-23 7,-35 l 25,-13 -480,-830 c -300,-519 -485,-830 -494,-829 -8,1 -34,13 -58,27 l -44,26 122,428 c 68,235 191,664 274,953 84,289 153,533 154,543 1,10 -11,26 -29,37 l -32,20 z m 1286,101 c 25,-15 48,-28 50,-30 1,-1 -214,-379 -479,-838 l -482,-835 -47,26 c -25,14 -50,29 -54,33 -6,5 844,1496 939,1648 18,28 18,28 73,-4 z"
           id="path1613" />
        <path
           d="m 8082,3409 c -21,-14 -31,-27 -28,-38 2,-9 16,-54 30,-101 13,-47 89,-301 167,-565 119,-405 346,-1167 365,-1228 4,-14 -6,-22 -46,-39 -28,-11 -49,-25 -48,-30 5,-15 13,-13 128,32 75,29 107,47 103,56 -4,10 -15,9 -55,-7 -28,-11 -53,-18 -55,-15 -6,6 -44,131 -378,1256 -53,179 -110,367 -126,419 -16,52 -27,96 -25,98 2,2 268,-270 591,-604 324,-334 615,-636 648,-670 l 60,-62 -26,-12 c -15,-7 -23,-17 -20,-26 4,-10 23,-4 82,28 110,60 145,86 131,94 -7,4 -23,1 -36,-6 -30,-15 53,-97 -744,731 -320,333 -606,628 -634,657 l -51,52 z"
           id="path1615" />
        <path
           d="m 6196,2953 c -5,-16 -60,-246 -261,-1083 -36,-151 -93,-390 -126,-530 -33,-140 -64,-272 -70,-292 l -9,-37 -53,2 c -100,4 -60,-18 62,-34 93,-12 121,-12 121,-3 0,15 -23,24 -64,24 -18,0 -35,2 -38,5 -3,3 4,47 16,98 13,51 110,458 216,906 129,537 197,807 202,795 7,-18 448,-1778 448,-1789 0,-3 -11,-5 -25,-5 -16,0 -25,-6 -25,-15 0,-13 34,-15 245,-15 211,0 245,2 245,15 0,10 -11,15 -35,15 h -35 l 2,963 3,962 33,3 c 20,2 32,8 29,15 -5,17 -239,17 -244,0 -3,-9 6,-13 26,-13 h 31 v -965 -966 l -62,3 -63,3 -244,978 -243,977 h -38 c -28,0 -40,-5 -44,-17 z"
           id="path1617" />
      </g>
    </g>
  </g>
</svg>
